<svg width="40" height="36" viewBox="0 0 40 36" fill="none" xmlns="http://www.w3.org/2000/svg">
<path fill-rule="evenodd" clip-rule="evenodd" d="M39.8428 33.7191C39.8128 33.6674 36.8214 28.4915 33.8746 23.3827C33.8746 23.3826 33.8746 23.3826 33.8746 23.3826C32.4717 20.9505 29.8821 19.4202 27.0821 19.3534C28.4292 16.8943 28.4011 13.8813 26.9956 11.4454C24.0086 6.27696 21.0277 1.10907 21.0276 1.10891C20.8184 0.746255 20.4317 0.522817 20.013 0.522583C20.0128 0.522583 20.0127 0.522583 20.0125 0.522583C19.594 0.522583 19.2073 0.745708 18.9979 1.10797C18.968 1.15969 15.9761 6.33594 13.0289 11.446C11.6239 13.8812 11.5957 16.8941 12.9426 19.3529C10.133 19.4113 7.53222 20.9434 6.12519 23.3826C3.1719 28.4921 0.186592 33.6684 0.156748 33.72C-0.0523925 34.0827 -0.0522363 34.5291 0.157139 34.8916C0.366514 35.2541 0.753311 35.4773 1.1719 35.4773H13.1089C15.9215 35.4773 18.5447 33.9958 20 31.5998C21.4552 33.9958 24.0784 35.4773 26.8911 35.4773H38.8282C39.2469 35.4773 39.6339 35.2539 39.8432 34.8912C40.0525 34.5284 40.0523 34.0816 39.8428 33.7191ZM18.0624 30.2743C17.0448 32.038 15.1467 33.1336 13.109 33.1336H3.20089C4.33042 31.1759 6.2494 27.8515 8.15503 24.5546C8.15519 24.5543 8.15534 24.554 8.15558 24.5537C9.173 22.7897 11.071 21.6939 13.109 21.6939C15.1384 21.6939 17.0291 22.7806 18.0496 24.5317C18.0539 24.5394 18.0581 24.547 18.0625 24.5545C19.0802 26.3185 19.0802 28.5102 18.0624 30.2743ZM20.0126 21.1972C17.9747 21.1972 16.0767 20.1014 15.0591 18.3372C14.0412 16.5733 14.0412 14.3816 15.0591 12.6176C15.0591 12.6175 15.0592 12.6174 15.0592 12.6173C16.9607 9.32016 18.8809 5.99563 20.0118 4.03821C21.1381 5.98985 23.0509 9.30383 24.966 12.6176C25.9839 14.3816 25.9839 16.5733 24.966 18.3374C23.9485 20.1013 22.0504 21.1972 20.0126 21.1972ZM26.8911 33.1336C24.8533 33.1336 22.9552 32.0381 21.9377 30.2743C20.9199 28.5102 20.9199 26.3185 21.9376 24.5545C21.942 24.547 21.9462 24.5395 21.9503 24.5319C22.9709 22.7808 24.8617 21.6939 26.8911 21.6939C28.9289 21.6939 30.827 22.7897 31.8445 24.5537V24.5536C33.7463 27.8507 35.6664 31.1756 36.7975 33.1335H26.8911V33.1336Z" fill="#E38E6A"/>
</svg>
