<svg width="40" height="38" viewBox="0 0 40 38" fill="none" xmlns="http://www.w3.org/2000/svg">
<path d="M38.8281 20.1719H37.0376C38.93 18.0166 40 15.2753 40 12.348C40 9.22828 38.8235 6.29336 36.6873 4.08375C34.5408 1.86336 31.6838 0.640625 28.6427 0.640625C25.6015 0.640625 22.7445 1.86336 20.598 4.08375L20 4.70227L19.402 4.08375C17.2555 1.86344 14.3985 0.640625 11.3574 0.640625C11.3573 0.640625 11.3576 0.640625 11.3574 0.640625C8.31641 0.640625 5.45906 1.86352 3.31258 4.08375C1.17648 6.29336 0 9.22844 0 12.348C0 15.2753 1.07 18.0166 2.96242 20.1719H1.17188C0.524687 20.1719 0 20.6966 0 21.3438C0 21.9909 0.524687 22.5156 1.17188 22.5156H5.15258L19.1575 37.002C19.3783 37.2305 19.6823 37.3594 20 37.3594C20.3177 37.3594 20.6217 37.2305 20.8425 37.002L34.8474 22.5156H38.8281C39.4753 22.5156 40 21.9909 40 21.3438C40 20.6966 39.4753 20.1719 38.8281 20.1719ZM4.99766 18.9834C1.46055 15.3247 1.46063 9.37156 4.99766 5.71281C6.69867 3.95336 8.95726 2.98438 11.3573 2.98438C13.7574 2.98438 16.016 3.95336 17.717 5.71281L19.1575 7.20281C19.3783 7.43125 19.6823 7.56016 20 7.56016C20.3177 7.56016 20.6217 7.43125 20.8425 7.20281L22.283 5.71281C23.984 3.95336 26.2425 2.98438 28.6427 2.98438C31.0427 2.98438 33.3013 3.95336 35.0023 5.71281C38.5394 9.37156 38.5395 15.3247 35.0023 18.9834L33.8534 20.1719H29.4059L27.3473 14.6823C27.1712 14.2127 26.7155 13.9059 26.2147 13.9223C25.7134 13.9374 25.2774 14.2698 25.1299 14.7491L23.125 21.2652L21.1201 14.7491C20.9688 14.2574 20.5145 13.9219 20 13.9219C19.4855 13.9219 19.0312 14.2574 18.8799 14.7491L16.875 21.2652L14.8701 14.7491C14.7226 14.2698 14.2866 13.9375 13.7853 13.9224C13.2849 13.9048 12.8288 14.2128 12.6527 14.6823L10.5941 20.1719H6.14664L4.99766 18.9834ZM20 34.5015L8.4125 22.5156H11.4062C11.8948 22.5156 12.332 22.2126 12.5035 21.7552L13.6406 18.723L15.7549 25.5946C15.9062 26.0863 16.3605 26.4219 16.875 26.4219C17.3895 26.4219 17.8438 26.0863 17.9951 25.5946L20 19.0786L22.0049 25.5946C22.1562 26.0863 22.6105 26.4219 23.125 26.4219C23.6395 26.4219 24.0938 26.0863 24.2451 25.5946L26.3594 18.723L27.4965 21.7552C27.668 22.2126 28.1052 22.5156 28.5938 22.5156H31.5875L20 34.5015Z" fill="#E38E6A"/>
</svg>
