<svg width="20" height="20" viewBox="0 0 20 20" fill="none" xmlns="http://www.w3.org/2000/svg">
<path d="M15.9471 14.8864C15.6542 14.5935 15.1793 14.5935 14.8864 14.8864C14.5935 15.1793 14.5935 15.6542 14.8864 15.9471L15.9471 14.8864ZM17.8031 18.8637C18.096 19.1566 18.5709 19.1566 18.8637 18.8637C19.1566 18.5709 19.1566 18.096 18.8637 17.8031L17.8031 18.8637ZM18.2501 9.58341C18.2501 4.79695 14.3699 0.916748 9.58341 0.916748V2.41675C13.5415 2.41675 16.7501 5.62537 16.7501 9.58341H18.2501ZM9.58341 0.916748C4.79695 0.916748 0.916748 4.79695 0.916748 9.58341H2.41675C2.41675 5.62537 5.62537 2.41675 9.58341 2.41675V0.916748ZM0.916748 9.58341C0.916748 14.3699 4.79695 18.2501 9.58341 18.2501V16.7501C5.62537 16.7501 2.41675 13.5415 2.41675 9.58341H0.916748ZM9.58341 18.2501C14.3699 18.2501 18.2501 14.3699 18.2501 9.58341H16.7501C16.7501 13.5415 13.5415 16.7501 9.58341 16.7501V18.2501ZM14.8864 15.9471L17.8031 18.8637L18.8637 17.8031L15.9471 14.8864L14.8864 15.9471Z" fill="white"/>
</svg>
