<?xml version="1.0" encoding="UTF-8" standalone="no"?>
<!-- Created with Inkscape (http://www.inkscape.org/) -->

<svg
   version="1.1"
   id="svg1"
   width="42"
   height="42"
   viewBox="0 0 42 42"
   sodipodi:docname="crescent-moon.svg"
   inkscape:version="1.4.2 (f4327f4, 2025-05-13)"
   xmlns:inkscape="http://www.inkscape.org/namespaces/inkscape"
   xmlns:sodipodi="http://sodipodi.sourceforge.net/DTD/sodipodi-0.dtd"
   xmlns="http://www.w3.org/2000/svg"
   xmlns:svg="http://www.w3.org/2000/svg">
  <defs
     id="defs1">
    <linearGradient
       id="swatch18"
       inkscape:swatch="solid">
      <stop
         style="stop-color:#000000;stop-opacity:1;"
         offset="0"
         id="stop18" />
    </linearGradient>
  </defs>
  <sodipodi:namedview
     id="namedview1"
     pagecolor="#ffffff"
     bordercolor="#000000"
     borderopacity="0.25"
     inkscape:showpageshadow="2"
     inkscape:pageopacity="0.0"
     inkscape:pagecheckerboard="0"
     inkscape:deskcolor="#d1d1d1"
     showgrid="false"
     inkscape:zoom="16"
     inkscape:cx="18.53125"
     inkscape:cy="18.71875"
     inkscape:window-width="1920"
     inkscape:window-height="1051"
     inkscape:window-x="-9"
     inkscape:window-y="-9"
     inkscape:window-maximized="1"
     inkscape:current-layer="svg1"
     inkscape:lockguides="true" />
  <path
     style="display:inline;fill:#ff69b4;fill-opacity:1;stroke-width:1;stroke-dasharray:none"
     d="m 20.457494,40.988242 c -0.104681,-0.01195 -0.435039,-0.04709 -0.734128,-0.0781 C 17.427492,40.672114 15.076485,39.995706 12.925884,38.954436 8.6578387,36.887952 5.1783879,33.414232 3.1141466,29.158862 1.1765017,25.164466 0.55528519,20.711883 1.3145283,16.260059 1.6472989,14.308858 2.3297279,12.250286 3.2491378,10.424238 5.1690861,6.6110126 8.191937,3.4890989 11.965984,1.4217305 c 0.578085,-0.3166666 0.782915,-0.4018381 1.006027,-0.4183222 0.360072,-0.026603 0.616601,0.1023113 0.784812,0.3943953 0.1742,0.3024807 0.134095,0.5831338 -0.179402,1.2554633 -1.447551,3.1044347 -2.022176,6.7386225 -1.624577,10.2745541 0.360875,3.209334 1.518454,6.279358 3.361999,8.916382 2.745472,3.927148 7.000186,6.809612 11.510783,7.798269 1.447959,0.317371 2.027087,0.399077 3.336697,0.470751 2.416838,0.132275 4.74568,-0.182575 7.124859,-0.963251 0.70218,-0.230405 1.123828,-0.399205 2.28483,-0.914697 0.239271,-0.106238 0.50312,-0.193459 0.58633,-0.193826 0.370181,-0.0016 0.763744,0.320813 0.8311,0.680911 0.04929,0.263526 -0.06416,0.558853 -0.550297,1.432433 -1.664023,2.990236 -3.893442,5.447146 -6.631397,7.308067 -1.522466,1.034782 -3.671975,2.075567 -5.356416,2.593561 -1.324343,0.407258 -2.029472,0.566281 -3.457005,0.779637 -0.868845,0.129855 -1.158422,0.147247 -2.660728,0.159808 -0.927177,0.0077 -1.771424,0.0043 -1.876105,-0.0076 z m 3.317171,-1.718101 c 2.841462,-0.240523 5.682571,-1.14891 8.118451,-2.595712 2.353767,-1.398031 4.425559,-3.324248 5.986381,-5.565748 0.172326,-0.247477 0.29145,-0.449959 0.264719,-0.449959 -0.02673,0 -0.230301,0.06224 -0.452379,0.138309 -1.229382,0.421108 -3.215912,0.825143 -4.699787,0.955878 -0.94265,0.08305 -2.703153,0.08259 -3.64345,-9.53e-4 C 25.726074,31.430099 22.132357,30.123498 19.206757,28.064592 16.98825,26.503307 15.291527,24.781285 13.755645,22.532206 11.222948,18.823432 9.9259347,14.184128 10.170537,9.7085867 10.278771,7.728202 10.584562,6.0236224 11.141052,4.2986218 11.216663,4.064241 11.267475,3.8613896 11.253966,3.8478409 11.22487,3.8186583 10.32301,4.4687528 9.744663,4.9358034 8.4740477,5.961902 6.8562551,7.7346171 5.9553377,9.0879986 4.3796668,11.455013 3.2929819,14.284663 2.8973062,17.050895 2.3960585,20.555199 2.784157,23.926597 4.0619523,27.168138 c 0.2914668,0.739399 1.0950166,2.319428 1.5532952,3.054262 1.2881688,2.065532 3.218131,4.126909 5.1747785,5.527138 1.139654,0.815565 2.803173,1.723628 4.093533,2.234529 2.865022,1.134368 5.751261,1.551854 8.891106,1.286074 z"
     id="path18"
     inkscape:label="path1"
     sodipodi:insensitive="true" />
</svg>
