<?xml version="1.0" encoding="UTF-8" standalone="no"?>
<!-- Created with Inkscape (http://www.inkscape.org/) -->

<svg
   width="26.458334mm"
   height="26.458334mm"
   viewBox="0 0 26.458334 26.458334"
   version="1.1"
   id="svg1"
   inkscape:version="1.4.2 (f4327f4, 2025-05-13)"
   sodipodi:docname="Fern-leaves1.svg"
   xmlns:inkscape="http://www.inkscape.org/namespaces/inkscape"
   xmlns:sodipodi="http://sodipodi.sourceforge.net/DTD/sodipodi-0.dtd"
   xmlns="http://www.w3.org/2000/svg"
   xmlns:svg="http://www.w3.org/2000/svg">
  <sodipodi:namedview
     id="namedview1"
     pagecolor="#ffffff"
     bordercolor="#000000"
     borderopacity="0.25"
     inkscape:showpageshadow="2"
     inkscape:pageopacity="0.0"
     inkscape:pagecheckerboard="0"
     inkscape:deskcolor="#d1d1d1"
     inkscape:document-units="mm"
     inkscape:zoom="5.9366442"
     inkscape:cx="49.60715"
     inkscape:cy="51.628494"
     inkscape:window-width="1920"
     inkscape:window-height="1051"
     inkscape:window-x="-9"
     inkscape:window-y="-9"
     inkscape:window-maximized="1"
     inkscape:current-layer="svg1"
     inkscape:lockguides="true"
     showgrid="false" />
  <defs
     id="defs1" />
  <path
     style="fill:#ff69b4;fill-opacity:1;stroke-width:0.264583;stroke-dasharray:none"
     d="m 0.36522375,26.309003 c -0.18295234,-0.08065 -0.34590794,-0.159978 -0.36212419,-0.176291 -0.07860585,-0.07907 1.35671674,-3.012858 2.16398864,-4.42318 0.2670649,-0.466569 0.4855726,-0.870638 0.4855726,-0.897936 0,-0.0273 -0.1804722,-0.318246 -0.4010489,-0.646549 C 1.5550222,19.128245 1.1630956,18.197621 0.92771039,17.021457 0.82747589,16.520609 0.80729596,16.24989 0.81034334,15.446946 0.81442406,14.371931 0.9025502,13.8101 1.2138164,12.874686 1.4129594,12.276227 1.5216,12.051516 2.2956345,10.637073 l 0.5980287,-1.0928167 0.034139,0.9581397 c 0.039243,1.101387 0.1586411,1.780721 0.4550792,2.589248 0.6954996,1.896949 0.7854839,2.309382 0.7900864,3.621256 0.00306,0.871643 -0.06287,1.484088 -0.2174632,2.02014 -0.01709,0.05926 0.186886,-0.199856 0.4532788,-0.575808 C 4.6751762,17.78128 5.079703,17.225879 5.3077325,16.923007 5.7105983,16.387914 5.7204596,16.367623 5.6562057,16.205925 5.1687538,14.979229 4.9334044,14.157436 4.7600272,13.076648 4.6285858,12.257276 4.6295155,10.513225 4.761849,9.6610929 4.9052314,8.7378105 5.9072671,4.764986 5.9141549,5.0924857 c 0.019987,0.9503755 0.2483557,2.0933727 0.7013796,3.5104377 0.331902,1.0381945 0.4489593,1.5458296 0.5347253,2.3189096 0.1384708,1.248148 -0.017479,2.659026 -0.4294008,3.884808 -0.087233,0.259582 -0.1586054,0.480656 -0.1586054,0.491274 0,0.01062 0.2349774,-0.254455 0.5221718,-0.589052 0.5923921,-0.690167 1.0679684,-1.21181 1.7090812,-1.874632 L 9.2364078,12.376333 8.936618,11.918435 C 8.3762909,11.062593 8.0139562,10.179329 7.7874795,9.1171744 7.6140568,8.3038398 7.6126061,6.8722697 7.7843259,6.0058683 7.9347016,5.2471595 8.1600221,4.5486284 8.459505,3.9127047 8.6960685,3.4103826 10.096608,1.0183111 10.132822,1.0547378 10.143772,1.0657571 10.078692,1.3752693 9.9881826,1.7425422 9.6877488,2.9616904 9.7124151,3.6616465 10.098948,4.88575 c 0.28551,0.9041714 0.36926,1.2550832 0.456062,1.9108802 0.205517,1.5526957 -0.04601,3.2185458 -0.7072535,4.6840998 -0.098588,0.218507 -0.1792511,0.408363 -0.1792511,0.421903 0,0.01354 0.2831779,-0.241057 0.6292836,-0.565771 0.346106,-0.324713 0.816061,-0.7537 1.044344,-0.953304 0.228282,-0.199604 0.415059,-0.391601 0.415059,-0.4266611 0,-0.03506 -0.12046,-0.4201567 -0.267689,-0.8557715 -0.470051,-1.3907681 -0.538674,-2.3955798 -0.243557,-3.5663321 0.167415,-0.6641481 0.615533,-1.5909817 1.004753,-2.0781125 0.358662,-0.4488853 2.567795,-2.91419926 2.590714,-2.8911453 0.0094,0.009469 -0.05298,0.22236436 -0.138665,0.4730984 -0.39019,1.1418418 -0.574227,2.206042 -0.641895,3.7117768 -0.05254,1.1690949 -0.140374,1.7213024 -0.384512,2.4173956 -0.22632,0.6452926 -0.523396,1.2237598 -1.056441,2.0571089 -0.06238,0.097529 0.0025,0.063594 0.235192,-0.1230264 0.564015,-0.4523234 1.911352,-1.462969 2.423412,-1.8178171 L 15.773898,6.9407739 V 5.3963814 c 0,-1.7232375 0.05241,-2.1954046 0.321624,-2.8976015 0.372806,-0.9723901 1.231956,-1.94932448 2.137192,-2.43018713 L 18.361842,0 18.327036,0.74725712 c -0.08977,1.92738298 -0.621652,3.68159798 -1.594781,5.25981368 -0.144171,0.2338146 -0.262129,0.4362219 -0.262129,0.4497935 0,0.013572 0.138577,-0.069119 0.307948,-0.1837578 0.169371,-0.1146383 0.734301,-0.4683988 1.2554,-0.786134 0.862736,-0.5260437 0.953184,-0.5954951 1.011536,-0.7767085 0.09998,-0.3104898 0.360978,-0.8086778 0.647367,-1.235691 0.921945,-1.3746383 2.886287,-2.57534396 4.998606,-3.05540175 0.206192,-0.04686 0.680788,-0.153671 1.054658,-0.23735781 l 0.679765,-0.15215761 -0.59943,0.63282052 C 25.349558,1.1654299 25.161954,1.4115784 24.911809,1.8619178 23.807402,3.8502015 22.124093,5.098615 20.031605,5.4812854 c -0.452889,0.082823 -0.536461,0.1211283 -1.383517,0.6341204 -1.229439,0.7445701 -2.448019,1.5558055 -2.285074,1.5212238 0.07364,-0.015629 0.519494,-0.1144593 0.990788,-0.2196247 2.389768,-0.5332572 4.317331,-0.634319 6.158948,-0.3229142 1.088963,0.1841365 1.658847,0.2439509 2.356466,0.2473329 l 0.589117,0.00286 -0.267781,0.2445548 C 26.043274,7.7233405 25.676659,8.033073 25.375854,8.2771302 23.303214,9.9587581 20.60248,10.379566 18.275361,9.3834763 17.800781,9.1803389 17.451126,8.9663718 16.602286,8.3596585 L 15.925001,7.8755625 15.56828,8.1295417 c -1.043165,0.7427142 -3.158571,2.4031063 -3.248849,2.5500363 -0.01308,0.02129 0.246688,-0.01653 0.577272,-0.08406 1.45574,-0.297358 2.595391,-0.310608 3.89259,-0.04525 0.916113,0.187399 2.106645,0.684386 2.947753,1.230537 0.794751,0.516052 1.741567,1.426913 2.296933,2.209713 l 0.181469,0.255781 -1.681038,-0.02611 c -1.41971,-0.02206 -1.755972,-0.04288 -2.163045,-0.133967 -1.324249,-0.296308 -2.250156,-0.761799 -3.466515,-1.742757 -0.841293,-0.678478 -1.531457,-1.076955 -2.361778,-1.36361 l -0.41913,-0.144697 -0.408809,0.366563 c -0.726869,0.651755 -2.1962787,2.064637 -2.2246876,2.139105 -0.020572,0.05392 0.041397,0.04599 0.2431821,-0.03113 0.7893555,-0.301691 1.8590975,-0.42822 2.6930145,-0.31853 1.174791,0.154527 2.008061,0.531927 3.347254,1.51602 1.776156,1.30519 2.554508,1.72377 3.909593,2.102493 0.338742,0.09467 0.652044,0.182789 0.696228,0.195815 0.08877,0.02617 -0.573819,0.309423 -1.294337,0.553316 -1.285977,0.435301 -2.863602,0.407149 -4.130377,-0.0737 -0.810297,-0.30758 -1.111372,-0.501094 -2.69735,-1.733711 C 11.420286,14.9006 10.489501,14.403166 9.4839867,14.069089 L 8.9513548,13.892111 8.635615,14.238565 c -0.806918,0.885413 -2.4720137,2.899357 -2.4311365,2.940474 0.00903,0.0091 0.3161505,-0.04218 0.6824896,-0.113916 1.7852788,-0.349593 3.2614689,-0.308891 4.8200159,0.132902 1.155607,0.327572 1.951811,0.714026 3.168464,1.537876 0.831907,0.563321 1.278138,0.752274 2.210572,0.936042 0.879014,0.173238 0.855487,0.150508 0.399374,0.385829 -0.654775,0.337814 -1.43475,0.62656 -2.032835,0.75255 -0.714216,0.150456 -1.836183,0.164038 -2.526894,0.03059 C 11.937577,20.650006 10.892239,20.199844 10.177287,19.657349 9.9710956,19.500895 9.4770409,19.124645 9.0793872,18.821238 8.2987587,18.225627 7.3359388,17.702947 6.538422,17.441843 c -0.4072489,-0.133332 -0.4294265,-0.1352 -0.5170164,-0.04356 -0.2644128,0.276623 -2.3392205,3.335961 -2.4379852,3.594848 -0.043014,0.11275 -0.013888,0.110413 1.0895408,-0.08742 0.857551,-0.153752 1.0583864,-0.170773 2.0231807,-0.171457 1.9704981,-0.0014 3.4366531,0.388585 5.3285641,1.417365 2.055015,1.117472 2.987894,1.439418 4.475712,1.544614 l 0.523837,0.03704 -1.495466,0.752553 c -1.764321,0.887848 -2.090432,1.024907 -2.881075,1.210851 -0.511845,0.120375 -0.720695,0.140436 -1.47964,0.142118 -1.1950722,0.0026 -2.0298047,-0.18155 -3.0259182,-0.667736 C 7.1621649,24.692733 6.8356073,24.412642 4.9287917,22.41492 4.4620151,21.925892 4.0476095,21.545161 3.8308921,21.406242 3.5068935,21.198551 3.4778981,21.18966 3.4123429,21.27789 c -0.3422485,0.460629 -1.9496963,3.533113 -2.42343731,4.632167 -0.13061683,0.303028 -0.249536,0.549748 -0.26426383,0.54827 -0.0147278,-0.0014 -0.17646623,-0.06867 -0.35941801,-0.149324 z"
     id="path1"
     sodipodi:insensitive="true" />
</svg>
