<?xml version="1.0" encoding="UTF-8" standalone="no"?>
<svg
   xml:space="preserve"
   viewBox="0 0 251 251"
   version="1.1"
   id="svg3"
   sodipodi:docname="Google-Messages.svg"
   width="251"
   height="251"
   inkscape:version="1.4.2 (f4327f4, 2025-05-13)"
   xmlns:inkscape="http://www.inkscape.org/namespaces/inkscape"
   xmlns:sodipodi="http://sodipodi.sourceforge.net/DTD/sodipodi-0.dtd"
   xmlns="http://www.w3.org/2000/svg"
   xmlns:svg="http://www.w3.org/2000/svg"><defs
     id="defs3" /><sodipodi:namedview
     id="namedview3"
     pagecolor="#ffffff"
     bordercolor="#000000"
     borderopacity="0.25"
     inkscape:showpageshadow="2"
     inkscape:pageopacity="0.0"
     inkscape:pagecheckerboard="0"
     inkscape:deskcolor="#d1d1d1"
     showgrid="false"
     inkscape:lockguides="true"
     inkscape:zoom="2.3616262"
     inkscape:cx="163.87014"
     inkscape:cy="96.755364"
     inkscape:window-width="1920"
     inkscape:window-height="1057"
     inkscape:window-x="-8"
     inkscape:window-y="-8"
     inkscape:window-maximized="1"
     inkscape:current-layer="svg3" /><path
     d="M 76.852275,161.19336 C 34.624194,161.19336 0.5,125.20703 0.5,80.871094 0.5,36.535157 34.624194,0.5 76.852275,0.5 h 79.427845 c 42.17926,0 76.35228,36.035157 76.35228,80.371094 0,44.335936 -34.1242,80.371096 -76.35228,80.371096 z"
     style="fill:#86a9ff;stroke-width:0.488234"
     id="path1"
     sodipodi:insensitive="true" /><path
     d="m 128.30707,193.66406 v 49.02344 c 0,4.24804 -3.4173,7.8125 -7.56688,7.8125 -2.00156,0 -3.95431,-0.83007 -5.32123,-2.29492 L 41.01943,171.49609 C 26.422671,156.60351 18.367604,136.19336 18.367604,115.05078 c 0,-43.505857 34.124194,-78.808592 76.352275,-78.808592 h 79.427851 c 42.17926,0 76.35227,35.351562 76.35227,78.808592 0,43.45704 -34.17301,78.8086 -76.40109,78.8086 h -45.79184 z"
     style="fill:#578cff;stroke-width:0.488234"
     id="path2"
     sodipodi:insensitive="true" /><path
     d="m 76.461726,161.19336 h 79.623124 c 42.2769,0 76.49873,-36.86524 76.49873,-82.226563 0,-5.371094 -0.53701,-10.546875 -1.36692,-15.722656 C 217.30336,46.59375 196.99483,36.193359 174.48946,36.193359 H 94.866335 c -42.276899,0 -76.498731,36.865235 -76.498731,82.226571 0,5.37109 0.537004,10.54687 1.366921,15.57617 13.913298,16.65038 34.221831,27.19726 56.727201,27.19726"
     style="fill:#0057cc;stroke-width:0.488234"
     id="path3"
     sodipodi:insensitive="true" /></svg>
