<?xml version="1.0" encoding="UTF-8" standalone="no"?>
<svg
   width="42"
   height="42"
   viewBox="0 0 42 42"
   fill="none"
   version="1.1"
   id="svg1"
   sodipodi:docname="heart-beat.svg"
   inkscape:version="1.4.2 (f4327f4, 2025-05-13)"
   xmlns:inkscape="http://www.inkscape.org/namespaces/inkscape"
   xmlns:sodipodi="http://sodipodi.sourceforge.net/DTD/sodipodi-0.dtd"
   xmlns="http://www.w3.org/2000/svg"
   xmlns:svg="http://www.w3.org/2000/svg">
  <defs
     id="defs1" />
  <sodipodi:namedview
     id="namedview1"
     pagecolor="#ffffff"
     bordercolor="#000000"
     borderopacity="0.25"
     inkscape:showpageshadow="2"
     inkscape:pageopacity="0.0"
     inkscape:pagecheckerboard="0"
     inkscape:deskcolor="#d1d1d1"
     inkscape:zoom="21.921053"
     inkscape:cx="19.957983"
     inkscape:cy="18.863145"
     inkscape:window-width="1920"
     inkscape:window-height="1051"
     inkscape:window-x="-9"
     inkscape:window-y="-9"
     inkscape:window-maximized="1"
     inkscape:current-layer="svg1"
     inkscape:lockguides="true" />
  <path
     style="display:inline;fill:#ff69b4;stroke-width:1;stroke-dasharray:none"
     d="m 20.504807,40.889038 c -0.149611,-0.08081 -1.988178,-2.126002 -7.281151,-8.099447 l -7.081,-7.991341 H 4.056467 c -2.3724189,0 -2.3688659,4.94e-4 -2.7164599,-0.37879 -0.58852499,-0.642184 -0.38580799,-1.679691 0.398017,-2.037054 0.133471,-0.06085 0.3758169,-0.07631 1.1965979,-0.07631 0.566076,0 1.029229,-0.01128 1.029229,-0.02507 0,-0.01379 -0.147307,-0.221261 -0.32735,-0.461048 C 2.659586,20.518891 1.8411231,18.784211 1.4264661,17.135952 0.52109011,13.537081 1.0765911,9.6646412 2.941614,6.5737352 4.507541,3.9785209 6.902998,2.0867525 9.5594471,1.3474209 10.699846,1.0300299 10.939822,1.0001761 12.345825,1.0007874 c 1.120496,4.87e-4 1.347076,0.014172 1.82839,0.1104301 1.578187,0.3156225 2.988386,0.9228005 4.241751,1.8263372 0.711639,0.5130125 1.183294,0.9377649 1.934539,1.7421615 l 0.650471,0.6964908 0.697041,-0.7450601 c 0.751675,-0.8034576 1.213783,-1.2170593 1.930356,-1.7277287 1.249608,-0.8905408 2.623516,-1.4768099 4.202406,-1.7932364 0.479047,-0.096006 0.706476,-0.109894 1.804293,-0.1101778 1.092149,-2.821e-4 1.330703,0.014006 1.827133,0.1094354 2.331782,0.4482409 4.373739,1.5998248 6.032544,3.4021159 0.995751,1.0818832 1.686149,2.1298965 2.282421,3.4646835 1.205585,2.6987622 1.527071,5.6564692 0.931834,8.5729952 -0.380485,1.864299 -1.223255,3.757034 -2.34632,5.26949 -0.17754,0.239096 -0.322798,0.446567 -0.322798,0.461048 0,0.01448 0.468734,0.02633 1.041633,0.02633 1.030968,0 1.044079,0.0013 1.280651,0.129967 0.70757,0.384743 0.847997,1.393634 0.278539,2.001146 -0.32333,0.344937 -0.245779,0.334629 -2.63302,0.349979 l -2.156238,0.01387 -7.08235,7.994028 c -5.313592,5.997585 -7.131547,8.020014 -7.279339,8.098082 -0.272686,0.144041 -0.714049,0.142192 -0.984955,-0.0041 z m 6.300569,-9.477667 c 3.176772,-3.58628 5.782801,-6.541347 5.791175,-6.566815 0.0092,-0.02795 -0.617457,-0.0463 -1.580505,-0.0463 -1.086656,0 -1.645268,-0.01836 -1.751003,-0.05758 -0.229744,-0.08519 -0.47685,-0.291534 -0.603404,-0.503863 -0.0615,-0.103186 -0.37425,-0.951106 -0.694991,-1.884258 -0.32074,-0.933152 -0.597269,-1.678612 -0.614509,-1.656574 -0.01724,0.02204 -0.500076,1.711054 -1.072969,3.75337 -0.572895,2.042317 -1.095362,3.824653 -1.161037,3.960746 -0.389875,0.807899 -1.419335,0.878211 -1.915501,0.130829 -0.09694,-0.146025 -0.377582,-1.07975 -1.153025,-3.836246 -0.563695,-2.003786 -1.035747,-3.643562 -1.049005,-3.64395 -0.01326,-3.86e-4 -0.47335,1.597388 -1.022426,3.55061 -0.549077,1.953224 -1.05211,3.662664 -1.117853,3.798757 -0.398516,0.824966 -1.472581,0.874376 -1.94293,0.08938 -0.06963,-0.116209 -0.495483,-1.549355 -1.122022,-3.77599 -1.243405,-4.418901 -1.146418,-4.092583 -1.190715,-4.006214 -0.01989,0.03878 -0.28533,0.79638 -0.589868,1.683552 -0.30454,0.887174 -0.581917,1.671774 -0.616396,1.743558 -0.0821,0.170926 -0.326857,0.419805 -0.527267,0.536142 -0.14597,0.08473 -0.304133,0.09409 -1.818806,0.107599 -1.014417,0.0091 -1.6532949,0.03308 -1.6444199,0.06187 0.0213,0.06908 11.5666199,13.103143 11.5963299,13.091642 0.01386,-0.0053 2.624375,-2.943984 5.801147,-6.530263 z M 18.920752,19.820009 c 0.543931,-1.929329 1.028438,-3.592297 1.076682,-3.695486 0.432975,-0.926081 1.736078,-0.826854 2.072244,0.157795 0.04076,0.11939 0.506083,1.753483 1.034048,3.631318 1.120961,3.986957 1.000008,3.584359 1.048202,3.489009 0.02079,-0.04112 0.482824,-1.653305 1.026755,-3.582636 0.543931,-1.929329 1.028437,-3.592297 1.076682,-3.695486 0.112889,-0.241456 0.406967,-0.515322 0.632542,-0.589069 0.438099,-0.143224 0.940427,0.0014 1.222523,0.351989 0.165004,0.205063 0.109302,0.05393 1.336937,3.627449 l 0.95032,2.766285 2.240567,0.01293 2.240567,0.01293 0.740006,-0.845097 c 0.407003,-0.464804 0.851579,-0.997712 0.987948,-1.184238 1.074169,-1.469272 1.762451,-3.24407 2.006486,-5.173912 0.09548,-0.754981 0.07052,-2.452146 -0.04617,-3.140108 C 38.177093,9.6642549 37.330117,7.8711248 35.894375,6.3052658 34.678926,4.9796667 33.215594,4.1011301 31.548226,3.6959843 28.872218,3.045753 26.076415,3.8041934 23.945474,5.7584456 23.743033,5.9441005 23.158676,6.5695099 22.646902,7.1482444 21.608487,8.3225249 21.447404,8.4501106 21.00432,8.4492601 20.545176,8.448379 20.39573,8.3315485 19.380288,7.179652 18.035093,5.6536927 17.344261,5.0574388 16.228484,4.4593447 13.204915,2.8386118 9.6957271,3.2196167 6.968557,5.4647278 6.475117,5.8709463 5.615664,6.815368 5.239484,7.364743 4.242452,8.8208098 3.642527,10.411094 3.391745,12.262737 c -0.08768,0.647348 -0.09999,2.076648 -0.02361,2.741363 0.132426,1.152563 0.442745,2.286365 0.91401,3.339482 0.545876,1.21985 0.984434,1.865749 2.191637,3.2278 l 0.652016,0.735651 2.2374931,-0.01293 2.2374939,-0.01293 1.037717,-3.015501 c 0.570745,-1.658526 1.071864,-3.086145 1.113597,-3.172488 0.104326,-0.215841 0.406958,-0.488101 0.619949,-0.557734 0.600176,-0.196211 1.22912,0.130062 1.439703,0.746863 0.04076,0.119391 0.506082,1.753483 1.034048,3.631318 1.12096,3.986957 1.000008,3.584359 1.048201,3.489009 0.02079,-0.04112 0.482824,-1.653305 1.026755,-3.582636 z"
     id="path2"
     inkscape:label="path1"
     sodipodi:insensitive="true" />
</svg>
