<?xml version="1.0" encoding="UTF-8" standalone="no"?>
<!-- Uploaded to: SVG Repo, www.svgrepo.com, Generator: SVG Repo Mixer Tools -->

<svg
   fill="#000000"
   height="250"
   width="250"
   version="1.1"
   id="Capa_1"
   viewBox="0 0 18.75 18.75"
   xml:space="preserve"
   sodipodi:docname="icon-viber.svg"
   inkscape:version="1.4.2 (f4327f4, 2025-05-13)"
   xmlns:inkscape="http://www.inkscape.org/namespaces/inkscape"
   xmlns:sodipodi="http://sodipodi.sourceforge.net/DTD/sodipodi-0.dtd"
   xmlns="http://www.w3.org/2000/svg"
   xmlns:svg="http://www.w3.org/2000/svg"><defs
   id="defs2" /><sodipodi:namedview
   id="namedview2"
   pagecolor="#ffffff"
   bordercolor="#000000"
   borderopacity="0.25"
   inkscape:showpageshadow="2"
   inkscape:pageopacity="0.0"
   inkscape:pagecheckerboard="0"
   inkscape:deskcolor="#d1d1d1"
   showgrid="false"
   inkscape:lockguides="true"
   inkscape:zoom="3.0228815"
   inkscape:cx="124.71544"
   inkscape:cy="127.52733"
   inkscape:window-width="1920"
   inkscape:window-height="1057"
   inkscape:window-x="-8"
   inkscape:window-y="-8"
   inkscape:window-maximized="1"
   inkscape:current-layer="Capa_1" />
<path
   id="path1"
   d="M 8.0549928,0 C 6.2881178,0 4.7053325,1.0304054 3.9347075,2.5920552 4.15877,2.5621883 4.3856328,2.5415564 4.6175078,2.5415564 h 6.0774992 c 2.890938,0 5.242493,2.3912473 5.242493,5.3305805 v 3.6046371 c 0,0.41178 -0.04998,0.811205 -0.136231,1.196613 C 17.531582,11.955632 18.75,10.216675 18.75,8.2991659 V 4.6948075 C 18.75,2.1059317 16.678742,0 14.132492,0 Z M 4.6175078,3.1770037 C 2.0712579,3.1770037 0,5.2832616 0,7.8721369 v 3.6046371 c 0,2.4567 1.9727972,4.548014 4.3749847,4.716729 v 2.058909 c 0,0.283734 0.1881556,0.497588 0.4375306,0.497588 0.1184375,0 0.2346638,-0.05182 0.3271638,-0.146191 l 0.4753415,-0.483252 c 1.215625,-1.235975 2.8596688,-1.916535 4.6290434,-1.916535 h 0.450943 c 2.54625,0 4.617508,-2.120858 4.617508,-4.727527 V 7.8721369 c 0,-2.5888753 -2.071258,-4.6951332 -4.617508,-4.6951332 z M 5.9375153,6.9939228 H 9.375 c 0.1725,0 0.3125153,0.1420416 0.3125153,0.3177469 C 9.6875153,7.4873753 9.5475,7.62937 9.375,7.62937 H 5.9375153 C 5.7650153,7.62937 5.625,7.4873753 5.625,7.3116697 5.625,7.1359644 5.7650153,6.9939228 5.9375153,6.9939228 Z M 4.3749847,9.2180581 h 6.5625003 c 0.1725,0 0.312515,0.141995 0.312515,0.3177003 0,0.1757057 -0.140015,0.3177469 -0.312515,0.3177469 H 4.3749847 c -0.1725,0 -0.3124694,-0.1420412 -0.3124694,-0.3177469 0,-0.1757053 0.1399694,-0.3177003 0.3124694,-0.3177003 z m 0,2.2240889 h 6.5625003 c 0.1725,0 0.312515,0.142041 0.312515,0.317747 0,0.175705 -0.140015,0.317747 -0.312515,0.317747 H 4.3749847 c -0.1725,0 -0.3124694,-0.142042 -0.3124694,-0.317747 0,-0.175706 0.1399694,-0.317747 0.3124694,-0.317747 z"
   style="fill:#7360f2;fill-opacity:1;stroke-width:0.315106"
   sodipodi:insensitive="true" />
</svg>
