<?xml version="1.0" encoding="UTF-8" standalone="no"?>
<!-- Uploaded to: SVG Repo, www.svgrepo.com, Generator: SVG Repo Mixer Tools -->

<svg
   fill="#000000"
   height="250"
   width="250"
   version="1.1"
   id="Capa_1"
   viewBox="0 0 18.75 18.75"
   xml:space="preserve"
   sodipodi:docname="icon-whatsapp.svg"
   inkscape:version="1.4.2 (f4327f4, 2025-05-13)"
   xmlns:inkscape="http://www.inkscape.org/namespaces/inkscape"
   xmlns:sodipodi="http://sodipodi.sourceforge.net/DTD/sodipodi-0.dtd"
   xmlns="http://www.w3.org/2000/svg"
   xmlns:svg="http://www.w3.org/2000/svg"><defs
   id="defs2" /><sodipodi:namedview
   id="namedview2"
   pagecolor="#ffffff"
   bordercolor="#000000"
   borderopacity="0.25"
   inkscape:showpageshadow="2"
   inkscape:pageopacity="0.0"
   inkscape:pagecheckerboard="0"
   inkscape:deskcolor="#d1d1d1"
   showgrid="false"
   inkscape:lockguides="true"
   inkscape:zoom="3.0228815"
   inkscape:cx="137.94785"
   inkscape:cy="127.85814"
   inkscape:window-width="1920"
   inkscape:window-height="1057"
   inkscape:window-x="-8"
   inkscape:window-y="-8"
   inkscape:window-maximized="1"
   inkscape:current-layer="Capa_1" />
<path
   id="path1"
   d="M 10.624831,0 C 8.0483184,0 5.6349053,1.1611994 4.1174347,3.0452544 5.3189738,2.4610938 6.6811269,2.1290782 8.1248488,2.1290782 c 4.8245942,0 8.7498452,3.6853556 8.7498452,8.2157508 0,1.77996 -0.607819,3.42803 -1.635924,4.774799 1.545595,0.6097 3.079314,0.840829 3.154938,0.85182 0.01469,0.0023 0.02939,0.0032 0.04376,0.0032 0.117185,0 0.226252,-0.06821 0.279688,-0.179096 0.06,-0.124462 0.03627,-0.274778 -0.05873,-0.372731 -0.610613,-0.631682 -1.032484,-1.968396 -1.191856,-3.771632 0.839984,-1.218752 1.283087,-2.6276227 1.283087,-4.0820431 0,-4.1734984 -3.644602,-7.56916674375 -8.124827,-7.56916674375 z M 8.1248488,2.7756153 c -4.4799132,0 -8.12482694764,3.3957153 -8.12482694764,7.5692137 0,1.454421 0.44310295764,2.862921 1.28308664764,4.081996 -0.1593719,1.803236 -0.58123506,3.139989 -1.19153569,3.771348 -0.09499816,0.09828 -0.11872878,0.248592 -0.05872994,0.37273 C 0.08627933,18.681787 0.19534582,18.75 0.31253103,18.75 c 0.0143747,0 0.0290663,-9.69e-4 0.0434409,-0.0032 C 0.4653448,18.73096 2.9912156,18.35467 4.82993,17.264259 c 1.0406047,0.43125 2.1483784,0.649804 3.2949188,0.649804 4.4799132,1.3e-5 8.1248732,-3.395703 8.1248732,-7.569201 0,-4.1734988 -3.644648,-7.5692142 -8.1248732,-7.5692142 z M 6.0936534,7.7586338 h 4.3748996 c 0.172497,0 0.31251,0.1444728 0.31251,0.3232446 0,0.1787719 -0.140013,0.3232922 -0.31251,0.3232922 H 6.0936534 c -0.1724965,0 -0.312509,-0.1445203 -0.312509,-0.3232922 0,-0.1787718 0.1400125,-0.3232446 0.312509,-0.3232446 z M 4.3749216,10.021537 h 7.8123634 c 0.172497,0 0.312509,0.14452 0.312509,0.323292 0,0.178772 -0.140012,0.323293 -0.312509,0.323293 H 4.3749216 c -0.1724966,0 -0.3124632,-0.144521 -0.3124632,-0.323293 0,-0.178772 0.1399666,-0.323292 0.3124632,-0.323292 z m 0,2.262951 h 7.8123634 c 0.172497,0 0.312509,0.14452 0.312509,0.323292 0,0.178772 -0.140012,0.323245 -0.312509,0.323245 H 4.3749216 c -0.1724966,0 -0.3124632,-0.144473 -0.3124632,-0.323245 0,-0.178772 0.1399666,-0.323292 0.3124632,-0.323292 z"
   style="fill:#25d366;fill-opacity:1;stroke-width:0.317841"
   sodipodi:insensitive="true" />
</svg>
