<?xml version="1.0" encoding="UTF-8" standalone="no"?>
<svg
   version="1.1"
   width="250"
   height="250"
   viewBox="0 0 250 250"
   xml:space="preserve"
   id="svg6"
   sodipodi:docname="icon-google-reviews.svg"
   inkscape:version="1.4.2 (f4327f4, 2025-05-13)"
   xmlns:inkscape="http://www.inkscape.org/namespaces/inkscape"
   xmlns:sodipodi="http://sodipodi.sourceforge.net/DTD/sodipodi-0.dtd"
   xmlns="http://www.w3.org/2000/svg"
   xmlns:svg="http://www.w3.org/2000/svg"><defs
   id="defs6" /><sodipodi:namedview
   id="namedview6"
   pagecolor="#ffffff"
   bordercolor="#000000"
   borderopacity="0.25"
   inkscape:showpageshadow="2"
   inkscape:pageopacity="0.0"
   inkscape:pagecheckerboard="0"
   inkscape:deskcolor="#d1d1d1"
   showgrid="false"
   inkscape:zoom="3.3398438"
   inkscape:cx="127.85029"
   inkscape:cy="128"
   inkscape:window-width="1920"
   inkscape:window-height="1057"
   inkscape:window-x="-8"
   inkscape:window-y="-8"
   inkscape:window-maximized="1"
   inkscape:current-layer="svg6"
   inkscape:lockguides="true" />
<path
   id="path1"
   style="opacity:1;fill:#f4b400;fill-rule:nonzero;stroke:none;stroke-width:2.80659;stroke-linecap:butt;stroke-linejoin:miter;stroke-miterlimit:10;stroke-dasharray:none"
   d="m 125,0 c -3.03917,0 -6.07849,1.7015105 -7.24538,5.1028672 L 94.583572,72.629458 C 92.153366,79.709947 85.3824,84.480159 77.757168,84.480159 H 7.6586536 c -7.38136133,0 -10.4749774,9.228902 -4.5313227,13.514972 L 59.828979,138.8702 c 6.139319,4.42495 8.709343,12.19991 6.384058,19.31095 l -21.813025,66.68481 c -2.237378,6.83883 5.685431,12.54238 11.680129,8.40631 l 58.694329,-40.49472 c 6.13081,-4.22773 14.31434,-4.22773 20.44515,0 l 58.69433,40.49472 c 5.99469,4.13607 13.9175,-1.56748 11.68013,-8.40631 l -21.81303,-66.68481 c -2.32812,-7.11104 0.24191,-14.88322 6.38406,-19.31095 l 56.70756,-40.875069 c 5.94366,-4.283292 2.85004,-13.514972 -4.53132,-13.514972 h -70.09851 c -7.62524,0 -14.3962,-4.770212 -16.82641,-11.850701 L 132.24539,5.1028672 C 131.07849,1.7015105 128.03918,0 125,0 Z M 49.845877,25.998944 c -1.301981,-0.04745 -2.626872,0.330047 -3.740952,1.16615 -2.549306,1.911093 -3.03699,5.486286 -1.086019,7.983485 L 69.91654,67.038122 c 1.145629,1.466653 2.872354,2.235762 4.621989,2.235762 1.233535,0 2.476037,-0.380282 3.528086,-1.171941 2.549306,-1.911093 3.036989,-5.486288 1.086019,-7.983487 L 54.254999,28.228914 c -1.099017,-1.404673 -2.735144,-2.168966 -4.409122,-2.22997 z m 150.300363,0.0039 c -1.67418,0.06148 -3.30973,0.826858 -4.40715,2.22997 l -24.89764,31.887611 c -1.95097,2.497199 -1.46612,6.072396 1.08603,7.983489 1.05205,0.788881 2.29738,1.170008 3.52808,1.170008 1.7468,0 3.4792,-0.769956 4.62199,-2.233831 l 24.89763,-31.887648 c 1.95098,-2.497198 1.46613,-6.072395 -1.08601,-7.983488 -1.11533,-0.836103 -2.44079,-1.213962 -3.74293,-1.166149 z M 42.421132,150.02391 c -0.57181,0.0144 -1.150704,0.11212 -1.720682,0.30119 L 5.673859,162.01169 c -3.0398844,1.01666 -4.665612,4.25361 -3.6305767,7.22858 0.8251925,2.36942 3.086132,3.86335 5.5049953,3.86335 0.621021,0 1.253397,-0.0995 1.874418,-0.30505 L 44.445346,161.10811 c 3.039885,-1.01665 4.66561,-4.25168 3.630575,-7.22665 -0.838662,-2.41716 -3.176946,-3.92008 -5.654789,-3.85755 z m 165.149858,0.002 c -2.48019,-0.0647 -4.81613,1.43815 -5.65479,3.85757 -1.03504,2.97497 0.58872,6.2147 3.6286,7.22858 l 35.02659,11.68659 c 0.62386,0.20556 1.2534,0.30505 1.87442,0.30505 2.4217,0 4.68178,-1.49478 5.50697,-3.86142 1.03503,-2.97497 -0.58872,-6.21277 -3.62861,-7.22665 l -35.03053,-11.68659 c -0.57104,-0.1901 -1.1503,-0.28818 -1.72265,-0.30313 z m -82.57296,56.86908 c -3.21002,0 -5.81444,2.54925 -5.81444,5.69367 v 31.7177 c 0,3.14441 2.60442,5.69367 5.81444,5.69367 3.21003,0 5.81247,-2.54926 5.81247,-5.69367 v -31.7177 c 0,-3.14442 -2.60244,-5.69367 -5.81247,-5.69367 z"
   sodipodi:insensitive="true" />
</svg>
