<?xml version="1.0" encoding="UTF-8" standalone="no"?>
<svg
   shape-rendering="geometricPrecision"
   text-rendering="geometricPrecision"
   image-rendering="optimizeQuality"
   fill-rule="evenodd"
   clip-rule="evenodd"
   viewBox="0 0 500 499.99999"
   version="1.1"
   id="svg2"
   sodipodi:docname="booking-confirmed-icon.svg"
   width="500"
   height="500"
   inkscape:version="1.4.2 (f4327f4, 2025-05-13)"
   xmlns:inkscape="http://www.inkscape.org/namespaces/inkscape"
   xmlns:sodipodi="http://sodipodi.sourceforge.net/DTD/sodipodi-0.dtd"
   xmlns="http://www.w3.org/2000/svg"
   xmlns:svg="http://www.w3.org/2000/svg">
  <defs
     id="defs2" />
  <sodipodi:namedview
     id="namedview2"
     pagecolor="#ffffff"
     bordercolor="#000000"
     borderopacity="0.25"
     inkscape:showpageshadow="2"
     inkscape:pageopacity="0.0"
     inkscape:pagecheckerboard="0"
     inkscape:deskcolor="#d1d1d1"
     inkscape:zoom="1.6696936"
     inkscape:cx="250.34534"
     inkscape:cy="208.12202"
     inkscape:window-width="1920"
     inkscape:window-height="1057"
     inkscape:window-x="-8"
     inkscape:window-y="-8"
     inkscape:window-maximized="1"
     inkscape:current-layer="svg2" />
  <g
     id="g2"
     inkscape:label="g1"
     transform="scale(0.99800399,0.976429)">
    <path
       fill="#10a64a"
       d="m 393.9,297.88 c 59.14,0 107.1,47.96 107.1,107.1 0,59.13 -47.96,107.09 -107.1,107.09 -59.13,0 -107.09,-47.96 -107.09,-107.09 0,-59.14 47.96,-107.1 107.09,-107.1 z m -30.93,91.95 17.53,16.56 41.91,-43.15 c 3.44,-3.47 5.59,-6.28 9.82,-1.92 l 13.73,14.08 c 4.52,4.45 4.29,7.08 0.04,11.23 l -57.65,57.39 c -8.98,8.79 -7.41,9.33 -16.5,0.31 l -32,-31.82 c -1.89,-2.04 -1.7,-4.12 0.39,-6.16 l 15.94,-16.54 c 2.42,-2.55 4.34,-2.33 6.79,0.02 z"
       id="path2" />
    <path
       fill="#1a1a1a"
       d="m 322.32,218.93 h 62.11 c 4.35,0 7.91,3.58 7.91,7.91 v 41.79 c -23.83,0.27 -46.22,6.71 -65.67,17.79 h -4.35 c -4.33,0 -7.91,-3.56 -7.91,-7.91 v -51.67 c 0,-4.35 3.56,-7.91 7.91,-7.91 z M 43.35,43.62 h 39.98 v 53.35 c 0,14.83 6.9,27.94 18.03,37.06 9.41,7.71 21.92,12.49 35.3,12.49 13.36,0 25.89,-4.78 35.29,-12.49 11.13,-9.12 18.03,-22.23 18.03,-37.06 V 43.62 h 80.74 v 53.35 c 0,14.83 6.89,27.94 18.02,37.06 9.41,7.71 21.92,12.49 35.3,12.49 13.37,0 25.89,-4.78 35.29,-12.49 11.14,-9.12 18.03,-22.23 18.03,-37.06 V 43.62 h 41.74 c 11.9,0 22.74,4.89 30.61,12.75 7.87,7.84 12.75,18.68 12.75,30.6 v 200.21 c -4.48,-2.62 -9.11,-4.99 -13.89,-7.09 V 169.13 H 13.89 v 256.78 c 0,18.74 15.34,34.09 34.09,34.09 h 221.19 c 2.12,4.77 4.51,9.41 7.15,13.88 H 43.35 C 31.46,473.88 20.63,469 12.77,461.15 4.88,453.25 0,442.42 0,430.54 V 86.97 C 0,75.07 4.88,64.24 12.73,56.38 20.61,48.5 31.45,43.62 43.35,43.62 Z M 115.72,17.16 C 115.72,7.69 125.09,0 136.66,0 c 11.57,0 20.93,7.69 20.93,17.16 v 79.81 c 0,9.46 -9.36,17.16 -20.93,17.16 -11.57,0 -20.94,-7.7 -20.94,-17.16 z m 187.39,0 C 303.11,7.69 312.47,0 324.04,0 c 11.57,0 20.93,7.69 20.93,17.16 v 79.81 c 0,9.46 -9.36,17.16 -20.93,17.16 -11.57,0 -20.93,-7.7 -20.93,-17.16 z M 78.03,218.93 h 62.11 c 4.35,0 7.91,3.58 7.91,7.91 v 51.67 c 0,4.33 -3.58,7.91 -7.91,7.91 H 78.03 c -4.34,0 -7.92,-3.56 -7.92,-7.91 v -51.67 c 0,-4.35 3.57,-7.91 7.92,-7.91 z m 0,109.89 h 62.11 c 4.35,0 7.91,3.58 7.91,7.91 v 51.67 c 0,4.33 -3.58,7.91 -7.91,7.91 H 78.03 c -4.34,0 -7.92,-3.56 -7.92,-7.91 v -51.67 c 0,-4.35 3.57,-7.91 7.92,-7.91 z M 200.82,218.93 h 62.11 c 4.35,0 7.91,3.58 7.91,7.91 v 51.67 c 0,4.33 -3.58,7.91 -7.91,7.91 h -62.11 c -4.33,0 -7.91,-3.56 -7.91,-7.91 v -51.67 c 0,-4.35 3.56,-7.91 7.91,-7.91 z m 0,109.89 h 62.11 c 4.35,0 7.91,3.58 7.91,7.91 v 9.61 a 135.49,135.49 0 0 0 -13.02,49.97 h -57 c -4.33,0 -7.91,-3.56 -7.91,-7.91 v -51.67 c 0,-4.35 3.56,-7.91 7.91,-7.91 z"
       id="path1" />
  </g>
</svg>
