<?xml version="1.0" encoding="UTF-8" standalone="no"?>
<svg
   xml:space="preserve"
   viewBox="0 0 251 251"
   version="1.1"
   id="svg6"
   sodipodi:docname="iMessage-Icon.svg"
   width="251"
   height="251"
   inkscape:version="1.4.2 (f4327f4, 2025-05-13)"
   xmlns:inkscape="http://www.inkscape.org/namespaces/inkscape"
   xmlns:sodipodi="http://sodipodi.sourceforge.net/DTD/sodipodi-0.dtd"
   xmlns:xlink="http://www.w3.org/1999/xlink"
   xmlns="http://www.w3.org/2000/svg"
   xmlns:svg="http://www.w3.org/2000/svg"><sodipodi:namedview
     id="namedview6"
     pagecolor="#ffffff"
     bordercolor="#000000"
     borderopacity="0.25"
     inkscape:showpageshadow="2"
     inkscape:pageopacity="0.0"
     inkscape:pagecheckerboard="0"
     inkscape:deskcolor="#d1d1d1"
     showgrid="false"
     inkscape:lockguides="true"
     inkscape:zoom="2.3616262"
     inkscape:cx="145.23891"
     inkscape:cy="133.59439"
     inkscape:window-width="1920"
     inkscape:window-height="1057"
     inkscape:window-x="-8"
     inkscape:window-y="-8"
     inkscape:window-maximized="1"
     inkscape:current-layer="svg6" /><defs
     id="defs5"><linearGradient
       id="a"><stop
         offset="0"
         stop-color="#5df777"
         id="stop1" /><stop
         offset=".25"
         stop-color="#4aea65"
         id="stop2" /><stop
         offset=".5"
         stop-color="#33d950"
         id="stop3" /><stop
         offset=".75"
         stop-color="#1dc93a"
         id="stop4" /><stop
         offset="1"
         stop-color="#0abc28"
         id="stop5" /></linearGradient><linearGradient
       xlink:href="#a"
       id="b"
       x1="511.978"
       x2="512"
       y1="0"
       y2="1024"
       gradientUnits="userSpaceOnUse"
       gradientTransform="matrix(0.24414063,0,0,0.24414063,0.5,0.5)" /></defs><path
     fill="url(#b)"
     d="m 250.5,172.29443 c 0,2.98926 0,5.97315 -0.0225,8.95703 -0.0149,2.51636 -0.0435,5.03272 -0.10889,7.54395 a 109.61914,109.61914 0 0 1 -1.44555,16.41895 55.322266,55.322266 0 0 1 -5.14649,15.61499 52.5,52.5 0 0 1 -22.95117,22.9519 55.34668,55.34668 0 0 1 -15.60303,5.1416 108.78906,108.78906 0 0 1 -16.42383,1.4458 q -3.77124,0.0974 -7.54345,0.11402 C 178.26587,250.5 175.28223,250.5 172.29858,250.5 H 78.701416 c -2.983643,0 -5.967285,0 -8.956543,-0.0146 -2.514648,-0.01 -5.029297,-0.0457 -7.543457,-0.10889 a 109.47266,109.47266 0 0 1 -16.423828,-1.45117 c -5.429199,-0.92383 -10.689942,-2.66308 -15.603027,-5.1416 A 52.507324,52.507324 0 0 1 7.2236328,220.83691 55.419922,55.419922 0 0 1 2.0769043,205.2168 109.61914,109.61914 0 0 1 0.63134766,188.80298 C 0.56591797,186.28662 0.53369141,183.77002 0.52246094,181.25366 0.5,178.2644 0.5,175.28613 0.5,172.29687 V 78.705566 c 0,-2.989013 0,-5.978271 0.0224609,-8.967529 0.0100098,-2.510986 0.043457,-5.027588 0.10888672,-7.53833 0.0690918,-5.5 0.55249028,-10.986572 1.44531258,-16.413818 A 55.419922,55.419922 0 0 1 7.2236328,30.165771 52.502441,52.502441 0 0 1 30.174561,7.2133789 55.419922,55.419922 0 0 1 45.772217,2.0717773 110.22949,110.22949 0 0 1 62.196045,0.62646484 C 64.712402,0.56103516 67.22876,0.52832031 69.739502,0.51733398 72.728516,0.5 75.717773,0.5 78.695801,0.5 h 93.597169 c 2.98901,0 5.97827,0 8.96191,0.0175781 q 3.77198,0.0141602 7.54346,0.10864257 a 110.10742,110.10742 0 0 1 16.41846,1.44580083 55.444336,55.444336 0 0 1 15.6084,5.1416015 52.490234,52.490234 0 0 1 22.95654,22.951904 55.395508,55.395508 0 0 1 5.14111,15.614746 109.61914,109.61914 0 0 1 1.44556,16.419434 c 0.0654,2.516357 0.0976,5.032715 0.10888,7.543701 0.0225,2.989258 0.0225,5.973145 0.0225,8.956787 z"
     id="path5"
     style="fill:url(#b);stroke-width:0.244141"
     sodipodi:insensitive="true" /><path
     fill="#ffffff"
     d="m 125.51221,44.37207 c -49.931399,2.44e-4 -91.572269,32.777344 -91.572269,75.34985 0,12.17774 4.126709,25.95679 11.87378,37.1167 4.985107,7.18091 11.421386,13.75537 19.439453,19.52075 a 91.064453,91.064453 0 0 0 7.113769,4.62378 c 1.147705,0.66748 2.468994,1.44996 3.335694,2.17456 0.802734,0.67115 1.313476,1.4021 1.605713,2.19483 0.531494,1.44165 0.524658,2.75342 -0.0059,4.42529 -0.236816,0.74634 -0.543945,1.49561 -0.987549,2.37061 -0.531494,1.04785 -1.247558,2.18091 -2.272461,3.62207 -1.674804,2.35522 -3.610107,4.40112 -5.601562,6.51928 -0.530273,0.56397 -2.329834,2.54688 -2.198486,3.49366 0.09229,0.66455 0.652343,1.28955 2.812255,0.77636 1.247315,-0.29663 2.457276,-0.63305 3.712403,-0.979 4.489746,-1.23877 8.467773,-3.15649 11.883789,-4.48486 2.60498,-1.0127 5.019775,-2.39478 7.4646,-3.69043 6.082031,-3.22364 6.820068,-3.38184 9.867671,-3.38184 1.40577,0 2.65039,0.24268 4.0459,0.49536 6.39282,1.15674 12.93872,1.62696 19.48316,1.62696 23.24096,0 45.13476,-7.95337 60.87939,-19.88819 18.58496,-14.08813 30.69287,-34.45483 30.69287,-56.53564 0,-42.037111 -40.94653,-75.3501 -91.57226,-75.3501"
     id="path6"
     style="stroke-width:0.244141"
     sodipodi:insensitive="true" /></svg>
