<?xml version="1.0" encoding="UTF-8" standalone="no"?>
<svg
   version="1.1"
   id="Layer_1"
   x="0px"
   y="0px"
   viewBox="0 0 251.00001 251.00001"
   xml:space="preserve"
   sodipodi:docname="KakaoTalk-Icon.svg"
   width="251"
   height="251"
   inkscape:version="1.4.2 (f4327f4, 2025-05-13)"
   xmlns:inkscape="http://www.inkscape.org/namespaces/inkscape"
   xmlns:sodipodi="http://sodipodi.sourceforge.net/DTD/sodipodi-0.dtd"
   xmlns="http://www.w3.org/2000/svg"
   xmlns:svg="http://www.w3.org/2000/svg"><defs
     id="defs3"><inkscape:path-effect
       effect="fillet_chamfer"
       id="path-effect3"
       is_visible="true"
       lpeversion="1"
       nodesatellites_param="F,0,0,1,0,0,0,1 @ F,0,0,1,0,0,0,1 @ F,0,0,1,0,0,0,1 @ F,0,0,1,0,0,0,1 @ F,0,0,1,0,0,0,1 @ F,0,0,1,0,0,0,1 @ F,0,0,1,0,0,0,1 @ F,0,0,1,0,0,0,1"
       radius="0"
       unit="px"
       method="auto"
       mode="F"
       chamfer_steps="1"
       flexible="false"
       use_knot_distance="true"
       apply_no_radius="true"
       apply_with_radius="true"
       only_selected="false"
       hide_knots="false" /></defs><sodipodi:namedview
     id="namedview3"
     pagecolor="#ffffff"
     bordercolor="#000000"
     borderopacity="0.25"
     inkscape:showpageshadow="2"
     inkscape:pageopacity="0.0"
     inkscape:pagecheckerboard="0"
     inkscape:deskcolor="#d1d1d1"
     showgrid="false"
     inkscape:lockguides="true"
     inkscape:zoom="2.4600273"
     inkscape:cx="123.57586"
     inkscape:cy="101.01514"
     inkscape:window-width="1920"
     inkscape:window-height="1057"
     inkscape:window-x="-8"
     inkscape:window-y="-8"
     inkscape:window-maximized="1"
     inkscape:current-layer="Layer_1" /><style
     type="text/css"
     id="style1">.st0{fill-rule:evenodd;clip-rule:evenodd;fill:#FFE812;} .st1{fill-rule:evenodd;clip-rule:evenodd;}</style><g
     id="g3"
     transform="matrix(2.0345052,0,0,2.0345052,0.5,0.5)"
     sodipodi:insensitive="true"><path
       class="st0"
       d="m 122.88,113.28 c 0,5.3 -4.3,9.6 -9.6,9.6 H 9.6 c -5.3,0 -9.6,-4.3 -9.6,-9.6 V 9.6 C 0,4.3 4.3,0 9.6,0 h 103.68 c 5.3,0 9.6,4.3 9.6,9.6 z"
       id="path1"
       inkscape:path-effect="#path-effect3"
       inkscape:original-d="m 122.88,113.28 c 0,5.3 -4.3,9.6 -9.6,9.6 H 9.6 c -5.3,0 -9.6,-4.3 -9.6,-9.6 V 9.6 C 0,4.3 4.3,0 9.6,0 h 103.68 c 5.3,0 9.6,4.3 9.6,9.6 z"
       sodipodi:insensitive="true" /><path
       class="st1"
       d="m 61.44,17.28 c -27.57,0 -49.92,17.62 -49.92,39.36 0,14.05 9.34,26.39 23.4,33.35 -0.76,2.64 -4.91,16.97 -5.08,18.09 0,0 -0.1,0.85 0.45,1.17 0.55,0.32 1.19,0.07 1.19,0.07 1.57,-0.22 18.21,-11.91 21.09,-13.94 2.88,0.41 5.84,0.62 8.87,0.62 27.57,0 49.92,-17.62 49.92,-39.36 0,-21.74 -22.35,-39.36 -49.92,-39.36 z"
       id="path2"
       sodipodi:insensitive="true" /><path
       class="st0"
       d="m 33.84,70.38 c -1.59,0 -2.88,-1.23 -2.88,-2.75 V 50.52 h -4.49 c -1.56,0 -2.83,-1.27 -2.83,-2.82 0,-1.55 1.27,-2.82 2.83,-2.82 h 14.75 c 1.56,0 2.83,1.27 2.83,2.82 0,1.55 -1.27,2.82 -2.83,2.82 h -4.49 v 17.11 c -0.01,1.52 -1.3,2.75 -2.89,2.75 z m 25.25,-0.04 c -1.2,0 -2.12,-0.49 -2.4,-1.27 l -1.43,-3.73 h -8.78 l -1.43,3.74 c -0.28,0.78 -1.19,1.27 -2.4,1.27 0,0 0,0 0,0 -0.63,0 -1.25,-0.14 -1.83,-0.4 -0.79,-0.37 -1.56,-1.37 -0.68,-4.09 l 6.89,-18.13 c 0.48,-1.38 1.96,-2.8 3.83,-2.84 1.88,0.04 3.36,1.46 3.84,2.85 l 6.89,18.12 c 0.88,2.72 0.11,3.73 -0.68,4.1 -0.56,0.25 -1.18,0.38 -1.82,0.38 0.01,0 0,0 0,0 z M 55.59,59.84 50.88,52.06 48,60.24 h 5.75 z m 10.65,10.12 c -1.52,0 -2.76,-1.18 -2.76,-2.64 V 47.76 c 0,-1.59 1.32,-2.88 2.94,-2.88 1.62,0 2.94,1.29 2.94,2.88 v 16.92 h 6.12 c 1.52,0 2.76,1.18 2.76,2.64 0,1.46 -1.24,2.64 -2.76,2.64 z m 16,0.38 c -1.59,0 -2.88,-1.29 -2.88,-2.88 v -19.7 c 0,-1.59 1.29,-2.88 2.88,-2.88 1.59,0 2.88,1.29 2.88,2.88 v 6.19 l 8.04,-8.04 c 0.41,-0.41 0.98,-0.64 1.6,-0.64 0.72,0 1.44,0.31 1.98,0.85 0.5,0.5 0.81,1.15 0.85,1.83 0.04,0.68 -0.18,1.3 -0.64,1.75 l -6.56,6.56 7.09,9.39 c 0.38,0.5 0.58,1.1 0.58,1.73 0,0.14 -0.01,0.27 -0.03,0.41 -0.1,0.76 -0.51,1.44 -1.12,1.9 -0.5,0.38 -1.1,0.58 -1.73,0.58 0,0 0,0 -0.01,0 0,0 -0.01,0 -0.01,0 -0.9,0 -1.75,-0.42 -2.29,-1.14 l -6.75,-8.95 -1,1 v 6.28 c 0,1.59 -1.29,2.88 -2.88,2.88 z"
       id="path3"
       sodipodi:insensitive="true" /></g></svg>
