<?xml version="1.0" encoding="UTF-8" standalone="no"?>
<!-- Uploaded to: SVG Repo, www.svgrepo.com, Transformed by: SVG Repo Mixer Tools -->

<svg
   width="251"
   height="251"
   viewBox="0 0 118.52345 118.52345"
   fill="#000000"
   version="1.1"
   id="svg3"
   sodipodi:docname="LINE-Icon.svg"
   inkscape:version="1.4.2 (f4327f4, 2025-05-13)"
   xmlns:inkscape="http://www.inkscape.org/namespaces/inkscape"
   xmlns:sodipodi="http://sodipodi.sourceforge.net/DTD/sodipodi-0.dtd"
   xmlns="http://www.w3.org/2000/svg"
   xmlns:svg="http://www.w3.org/2000/svg">
  <defs
     id="defs3" />
  <sodipodi:namedview
     id="namedview3"
     pagecolor="#ffffff"
     bordercolor="#000000"
     borderopacity="0.25"
     inkscape:showpageshadow="2"
     inkscape:pageopacity="0.0"
     inkscape:pagecheckerboard="0"
     inkscape:deskcolor="#d1d1d1"
     inkscape:zoom="3.0228815"
     inkscape:cx="154.15755"
     inkscape:cy="125.87328"
     inkscape:window-width="1920"
     inkscape:window-height="1057"
     inkscape:window-x="-8"
     inkscape:window-y="-8"
     inkscape:window-maximized="1"
     inkscape:current-layer="svg3" />
  <path
     fill-rule="evenodd"
     clip-rule="evenodd"
     fill="#3ace01"
     d="m 24.397103,0.2361025 h 69.729248 c 13.288469,0 24.160999,10.8725285 24.160999,24.1610005 v 69.729248 c 0,13.288469 -10.87253,24.160999 -24.160999,24.160999 H 24.397103 C 11.108631,118.28766 0.2361025,107.41513 0.2361025,94.126351 V 24.397103 c 0,-13.288472 10.8725285,-24.1610005 24.1610005,-24.1610005 z"
     id="path1"
     style="stroke-width:0.312501" />
  <path
     fill-rule="evenodd"
     clip-rule="evenodd"
     fill="#ffffff"
     d="m 59.147195,19.791154 c 23.919751,0 43.310425,15.527228 43.310425,34.681029 0,6.69033 -2.3675,12.936909 -6.465952,18.234736 -0.202813,0.301563 -0.467814,0.634689 -0.801877,1.002815 l -0.02531,0.0275 c -1.400003,1.675005 -2.97657,3.247509 -4.710012,4.699075 -11.97691,11.070342 -31.690712,24.250371 -34.292594,22.216931 -2.261881,-1.767502 3.725322,-10.412837 -3.182196,-11.851591 -0.481876,-0.05531 -0.962502,-0.114688 -1.439066,-0.182188 l -0.0091,-6.25e-4 v -6.25e-4 C 31.243684,85.736016 15.837081,71.545041 15.837081,54.472183 15.836456,35.318382 35.227445,19.791154 59.147195,19.791154 Z"
     id="path2"
     style="stroke-width:0.312501" />
  <path
     fill-rule="evenodd"
     clip-rule="evenodd"
     fill="#3ace01"
     d="m 34.018379,65.5344 h 8.735023 c 1.242503,0 2.258756,-1.016565 2.258756,-2.259069 v -0.188437 c 0,-1.242503 -1.016253,-2.258756 -2.258756,-2.258756 H 36.465573 V 46.522162 c 0,-1.242503 -1.016253,-2.258756 -2.258756,-2.258756 h -0.188438 c -1.242503,0 -2.258756,1.016253 -2.258756,2.258756 v 16.752857 c 0,1.242816 1.016253,2.259381 2.258756,2.259381 z M 88.145085,55.033435 v -0.188438 c 0,-1.242503 -1.016565,-2.258756 -2.259069,-2.258756 H 79.5985 v -3.576572 h 6.287516 c 1.242504,0 2.259069,-1.016252 2.259069,-2.258755 v -0.188438 c 0,-1.242504 -1.016565,-2.258756 -2.259069,-2.258756 h -8.735023 c -1.242503,0 -2.258756,1.016252 -2.258756,2.258756 v 16.752856 c 0,1.242503 1.016253,2.259068 2.258756,2.259068 h 8.735023 c 1.242504,0 2.259069,-1.016565 2.259069,-2.259068 v -0.188438 c 0,-1.242503 -1.016565,-2.258755 -2.259069,-2.258755 H 79.5985 v -3.576572 h 6.287516 c 1.242504,6.25e-4 2.259069,-1.015941 2.259069,-2.258132 z m -16.798482,9.827526 6.25e-4,-9.38e-4 a 2.2521935,2.2521935 0 0 0 0.653126,-1.584379 V 46.522787 c 0,-1.242503 -1.016252,-2.258756 -2.259068,-2.258756 h -0.188438 c -1.242503,0 -2.258756,1.016253 -2.258756,2.258756 v 9.834089 L 59.129695,45.406222 c -0.390001,-0.68094 -1.124378,-1.142191 -1.961255,-1.142191 h -0.188438 c -1.242503,0 -2.259068,1.016253 -2.259068,2.258756 v 16.752857 c 0,1.242503 1.016252,2.259068 2.259068,2.259068 h 0.188438 c 1.242503,0 2.258756,-1.016565 2.258756,-2.259068 V 53.257492 l 8.223147,11.231593 c 0.05062,0.07875 0.105938,0.154375 0.165625,0.22625 l 3.13e-4,6.25e-4 c 0.225938,0.308126 0.535001,0.519377 0.879377,0.648439 0.264688,0.109376 0.554064,0.170001 0.856877,0.170001 h 0.188438 a 2.2381309,2.2381309 0 0 0 1.055316,-0.263751 c 0.225938,-0.1075 0.416252,-0.24625 0.550314,-0.409688 z M 49.094044,65.5344 h 0.188438 c 1.242503,0 2.258756,-1.016565 2.258756,-2.259069 V 46.522475 c 0,-1.242504 -1.016253,-2.258756 -2.258756,-2.258756 h -0.188438 c -1.242503,0 -2.259069,1.016252 -2.259069,2.258756 v 16.752856 c 0,1.242504 1.016566,2.259069 2.259069,2.259069 z"
     id="path3"
     style="stroke-width:0.312501" />
</svg>
