<?xml version="1.0" encoding="UTF-8" standalone="no"?>
<!-- Created with Inkscape (http://www.inkscape.org/) -->

<svg
   width="26.458334mm"
   height="26.458334mm"
   viewBox="0 0 26.458334 26.458334"
   version="1.1"
   id="svg1"
   inkscape:version="1.4.2 (f4327f4, 2025-05-13)"
   sodipodi:docname="Flower-lotus1.svg"
   xmlns:inkscape="http://www.inkscape.org/namespaces/inkscape"
   xmlns:sodipodi="http://sodipodi.sourceforge.net/DTD/sodipodi-0.dtd"
   xmlns="http://www.w3.org/2000/svg"
   xmlns:svg="http://www.w3.org/2000/svg">
  <sodipodi:namedview
     id="namedview1"
     pagecolor="#ffffff"
     bordercolor="#000000"
     borderopacity="0.25"
     inkscape:showpageshadow="2"
     inkscape:pageopacity="0.0"
     inkscape:pagecheckerboard="0"
     inkscape:deskcolor="#d1d1d1"
     inkscape:document-units="mm"
     showgrid="false"
     inkscape:zoom="5.9366442"
     inkscape:cx="64.598785"
     inkscape:cy="60.892987"
     inkscape:window-width="1920"
     inkscape:window-height="1051"
     inkscape:window-x="-9"
     inkscape:window-y="-9"
     inkscape:window-maximized="1"
     inkscape:current-layer="svg1"
     inkscape:lockguides="true" />
  <defs
     id="defs1" />
  <path
     style="fill:#ff69b4;fill-opacity:1;stroke-width:0.264583;stroke-dasharray:none"
     d="m 12.45069,25.204399 c -0.431131,-0.689665 -0.783875,-1.279889 -0.783875,-1.311608 0,-0.03172 0.179716,-0.153436 0.399372,-0.270481 0.219652,-0.117048 0.559118,-0.31891 0.754367,-0.448592 l 0.354996,-0.23578 0.961421,0.547922 0.961422,0.547921 -0.636009,0.837919 c -0.349803,0.460857 -0.769164,1.006382 -0.931913,1.212279 l -0.295904,0.374358 z M 5.7221543,23.778264 C 3.7693596,23.406769 2.0233199,22.409205 0.73114598,20.926751 0.52434209,20.689495 0.36621598,20.455572 0.37975504,20.406926 0.41803894,20.269366 1.352196,19.347705 1.8452426,18.961039 c 0.24406,-0.1914 0.717964,-0.505863 1.0531205,-0.698806 l 0.6093747,-0.350804 0.2189503,0.216509 c 2.331151,2.305174 5.1335785,3.676871 8.0584589,3.944351 l 0.562077,0.0514 -0.798743,0.463068 C 10.661071,23.10123 9.8068001,23.454991 8.9155907,23.677053 8.131067,23.872534 6.4909426,23.924515 5.7221543,23.778261 Z M 18.115919,23.744294 C 17.031837,23.571049 15.818866,23.12903 14.743453,22.515339 l -0.680412,-0.388279 0.76916,-0.08788 c 3.120816,-0.356541 5.663036,-1.523203 7.688212,-3.528235 l 0.469946,-0.465273 0.554513,0.330898 c 0.891607,0.532053 2.548309,1.874704 2.556084,2.071545 0.0013,0.03323 -0.173034,0.256775 -0.387437,0.496771 -1.127021,1.261557 -2.763601,2.231969 -4.491381,2.663173 -0.669002,0.166963 -2.4305,0.244219 -3.106219,0.136229 z M 11.666815,20.832215 C 9.8793302,20.633757 8.1243849,20.012773 6.6636808,19.061866 3.0833677,16.731112 0.74827392,12.493931 0.04790894,7.0571117 0.00160843,6.6976845 -0.01384324,6.3758145 0.01357187,6.3418437 c 0.07116032,-0.088174 0.93253456,-0.053028 1.61404233,0.065856 0.9742444,0.1699536 1.6816365,0.370836 2.7001693,0.7667841 1.7568003,0.682944 3.1963505,1.61345 4.095438,2.6472411 l 0.462786,0.5321271 v 0.773156 c 0,0.760847 0.12186,2.105184 0.2463567,2.717746 0.4888335,2.405241 1.2990848,4.31729 2.6816908,6.328313 0.277491,0.403617 0.471038,0.729606 0.430101,0.724419 -0.04094,-0.0052 -0.30074,-0.03457 -0.577341,-0.06526 z m 3.064479,-0.576462 c 1.546372,-1.884665 2.943774,-4.981133 3.378974,-7.487371 0.165164,-0.951164 0.25126,-2.105172 0.20649,-2.767795 l -0.03762,-0.5567131 0.436089,-0.3484632 c 1.729007,-1.3815771 4.791252,-2.5633214 7.166234,-2.7655046 l 0.576874,-0.04911 V 6.492464 c 0,0.1164239 -0.06687,0.6736458 -0.148603,1.2382864 -0.938493,6.4834636 -4.273684,11.1332806 -9.056947,12.6268976 -0.770784,0.240684 -2.074289,0.479262 -2.621034,0.479725 l -0.377941,3.4e-4 z M 12.873312,19.782218 C 10.737087,16.787226 9.8003885,13.837992 9.9104302,10.45346 9.9509042,9.2086049 10.052397,8.4205558 10.334738,7.1588644 10.809467,5.0374603 11.813402,2.6614373 13.077475,0.66759728 13.310261,0.30041884 13.521283,0 13.546411,0 c 0.06893,0 0.889273,1.2540296 1.358597,2.076846 2.670778,4.682396 3.086789,9.313071 1.229387,13.684438 -0.63315,1.490106 -1.505577,2.911821 -2.467422,4.020934 l -0.435485,0.502164 z M 8.5600506,8.3963217 C 7.6441213,7.5326742 6.4180896,6.7262432 5.3148945,6.2617935 4.8286091,6.0570656 4.7756347,6.0177593 4.7905006,5.8726932 c 0.047706,-0.465535 0.627075,-3.635347 0.6779767,-3.709312 0.107871,-0.1567462 0.3023091,-0.09036 1.0804701,0.3689026 1.35704,0.8009106 2.4214768,1.7349272 2.9656111,2.6022484 L 9.7275035,5.4739567 9.3874234,7.0810469 C 9.2003792,7.9649476 9.0307668,8.7102317 9.0105067,8.7372358 c -0.020267,0.027 -0.2229652,-0.12641 -0.4504561,-0.3409141 z m 9.5558684,-0.501329 c 0,-0.2646902 -0.4093,-1.9987856 -0.614535,-2.6036235 -0.24447,-0.7204647 -0.275872,-0.6322609 0.46662,-1.310651 0.623469,-0.5696413 1.367777,-1.1302138 1.952481,-1.4705016 0.458873,-0.2670567 1.08403,-0.541912 1.119834,-0.492345 0.07008,0.097009 0.416416,1.2884254 0.537614,1.8494011 0.171556,0.7940528 0.339415,2.0997438 0.277958,2.1620829 -0.02315,0.023482 -0.308338,0.1482626 -0.633753,0.2772886 -0.65024,0.2578199 -1.962865,0.9857635 -2.589558,1.4360975 -0.452256,0.3249811 -0.516661,0.3439619 -0.516661,0.152251 z"
     id="path1"
     sodipodi:insensitive="true" />
</svg>
