<?xml version="1.0" encoding="UTF-8" standalone="no"?>
<!-- Created with Inkscape (http://www.inkscape.org/) -->

<svg
   width="26.458334mm"
   height="26.458334mm"
   viewBox="0 0 26.458334 26.458334"
   version="1.1"
   id="svg1"
   inkscape:version="1.4.2 (f4327f4, 2025-05-13)"
   sodipodi:docname="Meditation-woman1.svg"
   xmlns:inkscape="http://www.inkscape.org/namespaces/inkscape"
   xmlns:sodipodi="http://sodipodi.sourceforge.net/DTD/sodipodi-0.dtd"
   xmlns="http://www.w3.org/2000/svg"
   xmlns:svg="http://www.w3.org/2000/svg">
  <sodipodi:namedview
     id="namedview1"
     pagecolor="#ffffff"
     bordercolor="#000000"
     borderopacity="0.25"
     inkscape:showpageshadow="2"
     inkscape:pageopacity="0.0"
     inkscape:pagecheckerboard="0"
     inkscape:deskcolor="#d1d1d1"
     inkscape:document-units="mm"
     showgrid="false"
     inkscape:lockguides="true"
     inkscape:zoom="8.3956828"
     inkscape:cx="51.157245"
     inkscape:cy="44.48715"
     inkscape:window-width="1920"
     inkscape:window-height="1051"
     inkscape:window-x="-9"
     inkscape:window-y="-9"
     inkscape:window-maximized="1"
     inkscape:current-layer="svg1" />
  <defs
     id="defs1" />
  <path
     style="fill:#ff69b4;fill-opacity:1;stroke-width:0.264583;stroke-dasharray:none"
     d="M 9.9686007,26.441812 C 8.1820636,26.379236 6.2425419,26.281634 5.2826698,26.206003 4.1603348,26.117573 1.6227786,25.849771 1.3826703,25.794417 1.0456924,25.716729 1.3413463,25.663549 2.4800085,25.59703 3.1569475,25.55748 3.8954586,25.50878 4.1211439,25.488796 L 4.5314807,25.452467 4.0608866,25.298203 C 3.2086352,25.018833 2.5653904,24.532311 2.2811103,23.952057 1.9769476,23.331218 2.1096694,22.813259 2.7223596,22.230031 l 0.333806,-0.317754 -0.443782,0.04612 c -0.7133534,0.07413 -1.66523099,0.0563 -1.88251658,-0.03525 -0.15639788,-0.0659 -0.24378561,-0.182463 -0.45969582,-0.613176 -0.26505244,-0.528746 -0.32122129,-0.81355 -0.22856815,-1.158961 0.05977419,-0.222839 0.15486311,-0.118324 0.28854141,0.317145 0.12153892,0.395924 0.36722966,0.852909 0.45936985,0.854428 0.0776532,0.0013 0.0489557,-0.07532 -0.11863102,-0.316639 -0.14252508,-0.205233 -0.16311803,-0.290949 -0.16311803,-0.678958 0,-0.464511 0.0581728,-0.566067 0.22743017,-0.39704 0.0698228,0.06973 0.0844632,0.164012 0.0589165,0.379422 -0.0314058,0.26481 -0.0232767,0.289519 0.10674966,0.32447 0.0804432,0.02162 0.20965341,0.15205 0.30157931,0.30442 0.1302779,0.215938 0.1929245,0.266589 0.3297278,0.266589 0.2181585,0 0.3998924,-0.131674 0.3523825,-0.255314 C 1.8645292,20.897423 1.7467504,20.800876 1.6228223,20.73498 1.3389018,20.584011 1.2523445,20.509609 1.0860923,20.273624 0.84253964,19.927916 0.9699262,19.779379 1.3053855,20.017921 c 0.089903,0.06393 0.3742903,0.173759 0.6319702,0.244064 0.4340839,0.118436 0.6729015,0.222882 1.2090278,0.528768 0.1136737,0.06486 0.2649167,0.11792 0.3360951,0.11792 0.2133749,0 0.9530739,-0.54057 1.7408756,-1.272228 0.4077948,-0.378734 1.0350568,-0.93697 1.393916,-1.240525 0.3588596,-0.303556 0.7040128,-0.60949 0.767007,-0.679852 0.078854,-0.08808 0.148314,-0.335 0.2229662,-0.792622 C 7.8486839,15.443396 8.0822906,13.477121 8.129574,12.526974 8.19376,11.237182 8.3074513,10.844769 8.7326047,10.445584 9.0153069,10.18015 9.2273766,10.088383 9.8886404,9.9453443 10.209919,9.8758483 10.611625,9.7671262 10.781321,9.7037398 11.448047,9.4546973 11.977671,8.7459059 12.114871,7.9190604 L 12.180711,7.5222809 11.914314,7.2881098 C 11.751941,7.1453774 11.607653,6.948648 11.5448,6.7842949 11.48808,6.635991 11.403851,6.5146518 11.357614,6.5146518 c -0.04624,0 -0.08407,0.026656 -0.08407,0.059235 0,0.1256455 -0.101998,0.049759 -0.218944,-0.1628952 -0.174009,-0.3164195 -0.44573,-1.1714482 -0.423035,-1.3311744 0.01284,-0.090393 0.05829,-0.1338496 0.137796,-0.1317514 0.11334,0.00299 0.118631,-0.035315 0.118631,-0.8589023 0,-0.8096334 0.0096,-0.8824673 0.157804,-1.1981984 0.08679,-0.1848908 0.265317,-0.4526451 0.396724,-0.5950094 0.236251,-0.2559518 0.238852,-0.2637789 0.232818,-0.7004408 -0.0039,-0.2805498 0.02749,-0.5194752 0.08601,-0.65514292 C 11.965043,0.46815207 12.652375,0 13.141985,0 c 0.130494,0 0.371281,0.06232364 0.535082,0.13849687 0.669924,0.3115378 1.049364,0.96382443 0.913317,1.57006323 l -0.05817,0.2592236 0.301542,0.2887212 c 0.172367,0.1650381 0.370083,0.4347793 0.46154,0.6296731 0.150766,0.3212776 0.159998,0.3905832 0.159998,1.2010517 v 0.8601 l 0.14666,-0.00119 c 0.212367,-0.00175 0.217366,0.1436736 0.02733,0.7948731 -0.181686,0.6225938 -0.45876,1.0566733 -0.530466,0.8310564 -0.0576,-0.1812391 -0.115887,-0.1412568 -0.268534,0.1842067 -0.07761,0.1654678 -0.228976,0.377898 -0.336375,0.4720673 -0.225971,0.1981339 -0.243692,0.3457691 -0.09968,0.8304743 0.199156,0.6703215 0.544093,1.1773758 0.993801,1.4608764 0.138676,0.087423 0.60436,0.2403611 1.140807,0.3746589 1.041262,0.2606782 1.170432,0.3171602 1.461761,0.6391862 0.416947,0.460881 0.506895,0.784971 0.578495,2.084359 0.04641,0.842242 0.222402,2.463691 0.485181,4.470088 l 0.06981,0.533057 1.182942,1.154371 c 1.295844,1.264549 1.781387,1.676976 2.297986,1.951945 0.41628,0.221572 0.511153,0.224414 0.805118,0.02411 0.351152,-0.239266 0.777762,-0.406754 1.261858,-0.495407 0.249978,-0.04578 0.526832,-0.140414 0.644946,-0.22046 0.320805,-0.217406 0.436073,-0.16617 0.562693,0.25011 l 0.107799,0.354415 -0.181798,0.346348 c -0.209211,0.398569 -0.137315,0.402389 0.09584,0.0051 0.138066,-0.235271 0.151804,-0.306309 0.117607,-0.608159 -0.03288,-0.290253 -0.02186,-0.357011 0.07313,-0.442862 0.08897,-0.0804 0.123979,-0.08563 0.171113,-0.02555 0.07197,0.09174 0.195014,0.578379 0.195014,0.771291 0,0.227541 -0.448383,1.091066 -0.627334,1.208159 -0.202786,0.13269 -1.051873,0.177709 -1.684097,0.08929 -0.243644,-0.03407 -0.45403,-0.05093 -0.467526,-0.03745 -0.0135,0.01348 0.111861,0.17354 0.278569,0.355697 0.769347,0.840639 0.606838,1.829255 -0.414553,2.521921 -0.375133,0.254402 -1.029722,0.527364 -1.264661,0.527364 -0.07889,0 -0.159931,0.02666 -0.180093,0.05923 -0.02229,0.03602 0.0635,0.05898 0.218932,0.05857 0.488769,-0.0013 2.806498,0.195504 2.859228,0.24274 0.02919,0.02614 -0.01085,0.06203 -0.08897,0.07975 -0.174734,0.03963 -2.37445,0.240898 -3.582342,0.327772 -0.489354,0.0352 -1.049886,0.077 -1.245628,0.09291 -1.846397,0.150034 -8.392767,0.296062 -10.2912533,0.229565 z m 6.8414163,-2.895755 c 0.94941,-0.488098 1.248329,-0.586428 2.3627,-0.777225 0.743459,-0.127288 1.033533,-0.150556 1.59132,-0.12764 0.375171,0.0154 0.735513,0.04898 0.80076,0.0746 0.08482,0.0333 0.101652,0.02798 0.05906,-0.01867 -0.121341,-0.132901 -0.768107,-0.232787 -1.337414,-0.206546 -0.539467,0.02486 -0.562649,0.02073 -0.619745,-0.1102 -0.03262,-0.07482 -0.148171,-0.19542 -0.256772,-0.268008 -0.189759,-0.126835 -0.240631,-0.131177 -1.304943,-0.111364 -0.855566,0.01593 -1.23215,0.04898 -1.655528,0.145333 -0.645981,0.147005 -0.837729,0.152863 -1.219301,0.03724 -0.367882,-0.11147 -0.601259,-0.06068 -0.846488,0.184212 -0.235688,0.235366 -0.304601,0.520328 -0.197416,0.816336 0.127315,0.351602 0.05107,0.365167 -0.844481,0.15025 -1.110533,-0.266508 -1.213803,-0.31431 -1.632779,-0.755782 l -0.365312,-0.384926 -0.614878,0.0397 -0.614879,0.0397 -1.0365391,-0.303191 C 8.5072858,21.80312 7.9483501,21.639897 7.8353026,21.607156 c -0.2838455,-0.08221 -0.67242,-0.0176 -1.015429,0.168836 -0.364894,0.198329 -0.4845741,0.330219 -0.4582335,0.504983 0.020077,0.133201 0.024,0.131782 0.1092888,-0.03954 0.1233049,-0.247689 0.6037649,-0.500342 0.9548411,-0.502111 0.1608158,-8.06e-4 0.6894102,0.12175 1.275285,0.295689 1.2413194,0.36853 1.628588,0.434581 2.10183,0.358471 0.453295,-0.0729 0.567364,-0.02845 0.878083,0.342161 0.298651,0.356221 0.340838,0.371874 2.083829,0.773302 0.701407,0.161543 1.342015,0.320588 1.423574,0.353438 0.08156,0.03285 0.311922,0.06142 0.511917,0.06348 0.334453,0.0034 0.423491,-0.02702 1.109728,-0.37982 z m -1.41404,0.283205 c -0.06525,-0.01646 -0.312917,-0.110028 -0.550376,-0.207948 -0.317625,-0.130974 -0.454811,-0.222578 -0.519011,-0.346558 -0.181356,-0.350225 -0.04487,-0.748255 0.315057,-0.918819 0.183592,-0.087 0.235674,-0.0868 0.637286,0.0024 0.426196,0.09469 0.459936,0.09336 1.322415,-0.05205 1.200198,-0.202349 2.553068,-0.227115 2.789199,-0.05106 0.287784,0.214569 0.211454,0.26894 -0.613582,0.437069 -0.878209,0.178959 -1.122469,0.267842 -2.092312,0.76134 -0.661112,0.336403 -1.024305,0.442259 -1.288676,0.375597 z m -4.656274,-0.06299 c 0,-0.02469 -0.513821,-0.24967 -1.1418246,-0.499949 -1.7120634,-0.682313 -2.8194262,-0.873915 -3.871097,-0.669798 -0.2931967,0.05691 -0.5597769,0.130349 -0.5924005,0.163207 -0.039805,0.04009 -0.010541,0.04838 0.088973,0.02519 0.5895869,-0.137372 1.0379681,-0.163393 1.6975812,-0.09852 1.0279859,0.101111 1.4322957,0.22201 3.4628749,1.035487 0.236346,0.09468 0.355893,0.109591 0.355893,0.04438 z m -6.4211707,-2.18197 c 0.412219,-0.07806 0.7102526,-0.0907 1.4456585,-0.06132 0.8828289,0.03527 0.9338829,0.03112 1.0857971,-0.08821 0.1389084,-0.109116 0.2066644,-0.120104 0.5268441,-0.08544 0.5413336,0.05861 0.8755388,0.04436 1.3860569,-0.0591 0.3246271,-0.06579 0.7268257,-0.609345 0.7298849,-0.986413 8.202e-4,-0.100745 0.099581,-0.281085 0.2650312,-0.483936 0.523431,-0.641755 0.922583,-1.533176 0.922583,-2.060395 0,-0.166768 -0.09574,-0.779732 -0.212749,-1.362143 -0.175407,-0.873067 -0.245682,-1.11049 -0.40038,-1.352689 -0.1031975,-0.161568 -0.201582,-0.294351 -0.2186328,-0.295074 -0.01705,-7.17e-4 -0.1050076,0.391856 -0.1954607,0.872397 -0.2305603,1.224877 -0.5644367,2.542475 -0.7249546,2.860937 -0.1663285,0.32999 -0.8165627,0.952078 -1.4206498,1.359155 -0.6425973,0.433028 -1.6961239,0.941677 -2.750017,1.327725 -0.5008719,0.183473 -0.9613093,0.360648 -1.0231935,0.393722 -0.1325777,0.07086 -0.1530657,0.20265 -0.023802,0.153115 0.048793,-0.0187 0.3223855,-0.07825 0.6079837,-0.132331 z M 23.018028,21.68645 c 0,-0.02833 -0.487129,-0.231619 -1.082509,-0.451761 -2.141693,-0.791895 -2.80089,-1.145569 -3.66402,-1.965828 -0.654135,-0.621645 -0.669229,-0.658572 -1.121484,-2.743557 -0.187268,-0.863345 -0.356319,-1.569718 -0.375667,-1.569718 -0.01935,0 -0.111934,0.106623 -0.205743,0.236939 -0.136085,0.189044 -0.214359,0.440492 -0.387226,1.243927 -0.300865,1.398325 -0.306449,1.451945 -0.192573,1.848899 0.129216,0.450429 0.518278,1.15827 0.837577,1.523845 0.199657,0.228595 0.274854,0.377501 0.344001,0.681198 0.0755,0.331586 0.128306,0.426303 0.35965,0.645046 l 0.27116,0.25639 0.583863,-0.04134 c 0.557942,-0.0395 0.595452,-0.03455 0.844942,0.111457 l 0.26108,0.152794 0.769939,-0.06318 c 0.865525,-0.07102 1.750529,-0.03405 2.193512,0.09164 0.348303,0.09883 0.563498,0.115341 0.563498,0.04324 z m 2.178091,-0.614888 c 0.163621,-0.177694 0.372481,-0.578595 0.372481,-0.714973 0,-0.08821 -0.05165,-0.06417 -0.264848,0.123238 -0.145666,0.128046 -0.352347,0.25787 -0.45929,0.2885 -0.221488,0.06344 -0.275453,0.199875 -0.134665,0.340471 0.135342,0.135158 0.34216,0.119323 0.486322,-0.03724 z"
     id="path1"
     sodipodi:insensitive="true" />
</svg>
