<?xml version="1.0" encoding="UTF-8" standalone="no"?>
<!-- Created with Inkscape (http://www.inkscape.org/) -->

<svg
   width="26.458334mm"
   height="26.458334mm"
   viewBox="0 0 26.458334 26.458334"
   version="1.1"
   id="svg1"
   inkscape:version="1.4.2 (f4327f4, 2025-05-13)"
   sodipodi:docname="Meditation-man1.svg"
   xmlns:inkscape="http://www.inkscape.org/namespaces/inkscape"
   xmlns:sodipodi="http://sodipodi.sourceforge.net/DTD/sodipodi-0.dtd"
   xmlns="http://www.w3.org/2000/svg"
   xmlns:svg="http://www.w3.org/2000/svg">
  <sodipodi:namedview
     id="namedview1"
     pagecolor="#ffffff"
     bordercolor="#000000"
     borderopacity="0.25"
     inkscape:showpageshadow="2"
     inkscape:pageopacity="0.0"
     inkscape:pagecheckerboard="0"
     inkscape:deskcolor="#d1d1d1"
     inkscape:document-units="mm"
     inkscape:zoom="8.3956828"
     inkscape:cx="47.58398"
     inkscape:cy="51.991007"
     inkscape:window-width="1920"
     inkscape:window-height="1051"
     inkscape:window-x="-9"
     inkscape:window-y="-9"
     inkscape:window-maximized="1"
     inkscape:current-layer="svg1"
     showgrid="false"
     inkscape:lockguides="true" />
  <defs
     id="defs1" />
  <path
     style="fill:#ff69b4;fill-opacity:1;stroke-width:0.264583;stroke-dasharray:none"
     d="M 8.0287413,26.433135 C 5.6261772,26.394261 3.1700561,26.301651 2.1152749,26.210163 0.818836,26.097715 0.19309647,26.031333 0.1671225,26.003492 0.10076253,25.932363 0.32343937,25.862061 0.74285606,25.821714 2.9402413,25.61033 4.1157075,25.515868 4.5580631,25.515118 4.8710627,25.51457 5.0576607,25.490188 5.0224707,25.454388 4.9901204,25.421477 4.4620851,25.145673 3.8490656,24.841496 2.5969477,24.2202 2.3136707,23.98526 2.037752,23.339247 1.8831021,22.977164 1.8798461,22.944195 1.9487321,22.437633 c 0.03932,-0.289184 0.1277128,-0.627922 0.1964228,-0.752747 0.06871,-0.124826 0.1249278,-0.240184 0.1249278,-0.256349 0,-0.01617 -0.2159498,-0.03011 -0.4798885,-0.03098 -0.6304246,-0.0021 -0.91810536,-0.07973 -1.14240618,-0.308363 -0.2436298,-0.248336 -0.68808545,-1.066971 -0.64485048,-1.187739 0.04965995,-0.138721 0.22552481,-0.116597 0.39004069,0.04906 0.14331388,0.144314 0.14331388,0.144314 0.14331388,0.0013 0,-0.184847 0.18332287,-0.676635 0.2522288,-0.676635 0.08811,0 0.19049886,0.26233 0.15248988,0.390695 -0.0442401,0.149415 0.56265471,0.924833 0.72941151,0.931952 0.1564037,0.0067 0.3371206,-0.10692 0.4135176,-0.259931 0.05399,-0.108129 0.036729,-0.143909 -0.1069429,-0.221674 -0.094231,-0.051 -0.20345,-0.08037 -0.2427178,-0.06527 -0.045659,0.01756 -0.06798,-0.05057 -0.06192,-0.189027 0.0089,-0.202758 -0.006,-0.219285 -0.2346959,-0.260511 C 0.99633302,19.521851 0.74259824,19.02116 1.06405,18.864168 c 0.131787,-0.06436 0.1842019,-0.05414 0.3350218,0.06539 0.09834,0.07792 0.3447557,0.170337 0.5475996,0.205354 0.2185108,0.03772 0.5996194,0.187918 0.9351911,0.368568 0.5663836,0.3049 0.5663836,0.3049 1.1214102,-0.09512 0.6907583,-0.49784 0.928046,-0.719869 1.211142,-1.133244 0.1417437,-0.206975 0.4186715,-0.464294 0.7601222,-0.706298 0.6101034,-0.432416 0.6667253,-0.49388 0.7514893,-0.815776 0.1674657,-0.635962 0.3113328,-1.34125 0.2834538,-1.3896 -0.01721,-0.02985 -0.1554979,-0.08779 -0.3073088,-0.128764 -0.1518129,-0.04097 -0.2913228,-0.101036 -0.3100237,-0.133471 -0.0187,-0.03243 0.1173678,-0.532731 0.3023757,-1.111771 0.2159837,-0.67599 0.3622907,-1.266604 0.4087786,-1.650154 0.08392,-0.69237 0.3149078,-1.53949 0.5275847,-1.934827 C 7.9037914,9.8971567 8.242245,9.6554856 9.5193281,9.0560179 10.177812,8.746921 10.856547,8.3908181 11.027625,8.2646781 c 0.171079,-0.1261399 0.394271,-0.2475898 0.495982,-0.2698879 0.266984,-0.05853 0.41258,-0.3701318 0.472971,-1.0122356 0.04735,-0.5034288 0.04161,-0.5478378 -0.09584,-0.7420638 C 11.820308,6.1268678 11.729607,5.9293669 11.699164,5.8015999 11.660635,5.639903 11.603945,5.5630431 11.51265,5.548719 11.326157,5.5194591 11.289914,5.4479361 11.093009,4.7205585 10.933683,4.1319965 10.926234,4.0612046 11.01376,3.9673897 c 0.07667,-0.08218 0.12365,-0.08803 0.227668,-0.02836 0.17717,0.101635 0.173157,-0.007 -0.02613,-0.7073448 -0.08646,-0.3038249 -0.154559,-0.6787107 -0.151335,-0.8330796 0.0032,-0.1543689 -0.01249,-0.375489 -0.03491,-0.4913779 -0.05524,-0.285482 0.06415,-0.6399527 0.30946,-0.91874972 0.160151,-0.18201695 0.251511,-0.23117694 0.429627,-0.23117694 0.182967,0 0.240109,-0.03268 0.298868,-0.17090894 0.07656,-0.18010093 0.33766,-0.35948388 0.525352,-0.36092588 0.06129,-4.7099e-4 0.28791,-0.06015 0.503597,-0.13262295 0.436673,-0.14672395 0.609646,-0.12639295 0.937457,0.11018596 0.118268,0.08535 0.347328,0.20228994 0.50902,0.25985592 0.356003,0.12674497 0.607249,0.42126385 0.607249,0.71184185 0,0.1474288 0.04966,0.2506729 0.170283,0.3540188 0.157594,0.1350239 0.169331,0.1782569 0.15753,0.5802247 -0.0074,0.25193 -0.07678,0.6376859 -0.165212,0.9185568 -0.08385,0.2663239 -0.170563,0.5797298 -0.192697,0.6964558 -0.03766,0.1986179 -0.02961,0.2113889 0.125536,0.1991169 0.294682,-0.02331 0.313955,0.129829 0.112011,0.8900007 -0.170639,0.6423278 -0.195163,0.6920568 -0.356547,0.7229848 -0.139955,0.02682 -0.195253,0.095291 -0.287376,0.3558498 -0.06274,0.177452 -0.15304,0.3715909 -0.200668,0.4314199 -0.109351,0.137363 -0.04865,0.9850297 0.09662,1.3493525 0.07888,0.1978109 0.145746,0.258857 0.347243,0.317015 0.137254,0.039619 0.327446,0.1418299 0.422652,0.227143 0.221268,0.1982808 0.488014,0.3405868 1.438955,0.7676687 1.453059,0.6525896 1.767579,0.8723687 2.093851,1.4631299 0.202547,0.366741 0.367562,0.964739 0.532187,1.928605 0.08946,0.523799 0.259932,1.207399 0.41283,1.655501 0.33177,0.972328 0.338288,1.071969 0.07615,1.163975 -0.328571,0.115325 -0.336236,0.147427 -0.198303,0.830477 0.230423,1.141052 0.20902,1.093753 0.60221,1.330987 0.212137,0.127997 0.629204,0.511051 1.037796,0.953166 0.539076,0.583303 0.80551,0.814239 1.263514,1.095177 0.580392,0.356009 0.580392,0.356009 1.081629,0.08023 0.301175,-0.165707 0.624812,-0.290713 0.810844,-0.31319 0.170281,-0.02058 0.424369,-0.10021 0.564638,-0.176969 0.298452,-0.16332 0.457059,-0.124611 0.457059,0.111551 0,0.220262 -0.183675,0.409911 -0.479768,0.495372 -0.152565,0.04403 -0.291654,0.147021 -0.385692,0.285584 -0.08089,0.119193 -0.18397,0.240597 -0.22906,0.269789 -0.141533,0.09164 -0.09004,0.216894 0.136844,0.332865 0.313462,0.160225 0.352802,0.145868 0.518681,-0.189293 0.08197,-0.165631 0.22864,-0.351547 0.325923,-0.413145 0.147901,-0.09365 0.174191,-0.149951 0.160457,-0.343637 -0.01155,-0.162907 0.01113,-0.237493 0.07646,-0.251369 0.117109,-0.02489 0.371526,0.370246 0.371526,0.577 0,0.150329 0.0041,0.151584 0.121536,0.03762 0.06773,-0.06571 0.165558,-0.09979 0.220995,-0.07699 0.124085,0.05104 0.08708,0.199765 -0.183736,0.738472 -0.148911,0.296207 -0.276875,0.449248 -0.499473,0.597351 -0.269948,0.179609 -0.358925,0.201353 -0.908113,0.22193 -0.334862,0.01255 -0.608841,0.05052 -0.608841,0.08439 0,0.03387 0.07625,0.185086 0.169448,0.336038 0.149342,0.241894 0.16955,0.338209 0.170284,0.811639 6.82e-4,0.434732 -0.02677,0.594137 -0.143894,0.835851 -0.26776,0.552586 -0.470849,0.714245 -1.712906,1.363497 -1.370073,0.716167 -1.4293,0.631859 0.557289,0.793303 0.715189,0.05812 1.397871,0.117314 1.517068,0.131539 0.119197,0.01422 0.411775,0.0437 0.650171,0.06553 0.638555,0.05843 0.897857,0.106915 0.897857,0.167898 0,0.07512 -0.399837,0.120961 -1.733791,0.198818 -0.630047,0.03677 -1.382389,0.08102 -1.67187,0.09836 -2.376592,0.142225 -10.49069,0.228227 -14.8610659,0.157513 z m 4.4516407,-2.142891 c -0.05379,-0.05766 -1.90716,-0.889615 -3.2751396,-1.470173 -1.393226,-0.591272 -1.393226,-0.591272 -2.1982002,-0.57813 -1.4053929,0.02294 -1.6464078,0.171413 -0.3893306,0.239837 1.3300209,0.0724 2.0680103,0.274006 3.6380434,0.993876 1.333063,0.611217 2.399046,1.001548 2.224627,0.81459 z m 5.08421,-0.246683 c -0.119198,-0.03481 -0.648623,-0.21005 -1.176501,-0.389418 -0.527879,-0.179365 -1.085169,-0.359878 -1.238421,-0.401138 -0.153257,-0.04126 -0.438027,-0.146712 -0.632827,-0.234343 -0.619581,-0.278714 -1.092179,-0.161548 -1.307164,0.324069 -0.146772,0.331534 -0.12805,0.427333 0.04452,0.227754 0.309378,-0.357823 0.962769,-0.394303 1.585876,-0.08854 0.187311,0.09191 0.521685,0.198196 0.743053,0.236185 0.221368,0.03799 0.722929,0.142148 1.114581,0.231464 0.723238,0.164938 1.338061,0.231587 0.866895,0.09398 z m 0.06192,-1.351991 c 1.385843,-0.218289 1.910693,-0.288696 2.507805,-0.336409 0.563404,-0.04502 0.596888,-0.0549 0.371527,-0.109645 -0.136229,-0.03308 -0.65172,-0.04594 -1.145541,-0.02854 -0.787478,0.02774 -1.000622,0.06169 -1.733791,0.276165 -0.459765,0.134496 -0.863799,0.274027 -0.897856,0.310066 -0.04087,0.04325 -0.0093,0.05282 0.09288,0.02815 0.08514,-0.02055 0.447379,-0.08346 0.804974,-0.139785 z M 8.9277537,21.78663 C 7.9433013,21.437919 5.3714865,21.08746 4.8953038,21.237133 c -0.1376629,0.04327 -0.028239,0.06574 0.4708286,0.09667 0.3575938,0.02217 0.7894934,0.08911 0.9597773,0.148784 0.1702829,0.05966 0.6736126,0.141818 1.1185101,0.182563 0.4448967,0.04075 1.0439831,0.128732 1.331303,0.195524 0.7456612,0.173346 0.7897833,0.151853 0.1520309,-0.07405 z m 9.2014963,0.04751 c 0.285428,-0.05279 0.82547,-0.129844 1.200093,-0.17123 0.374623,-0.04139 0.894758,-0.1326 1.155857,-0.202696 0.261098,-0.07009 0.64588,-0.127446 0.855069,-0.127446 0.237796,0 0.366002,-0.02488 0.342076,-0.06637 -0.101079,-0.175307 -1.956831,0.03663 -3.185997,0.363862 -0.4922,0.131034 -0.907846,0.252108 -0.923656,0.269052 -0.04093,0.04388 -0.01951,0.04137 0.556558,-0.06517 z M 8.1835422,20.645276 c 0.4597347,-0.148169 0.4965907,-0.173349 0.5123486,-0.350025 0.03897,-0.436909 0.07234,-0.489031 0.4180158,-0.652895 0.3638477,-0.172478 0.4052916,-0.267823 0.2461367,-0.566247 -0.135166,-0.253448 -0.1107228,-0.586243 0.06692,-0.911164 0.1598037,-0.292288 0.1598037,-0.292288 0,-1.144492 -0.08789,-0.468714 -0.1598049,-0.944626 -0.1598049,-1.057583 0,-0.112958 -0.02336,-0.20538 -0.05192,-0.20538 -0.1267671,0 -0.8582233,1.837674 -0.9697723,2.436403 -0.043461,0.233291 -0.2599198,0.463145 -0.8183755,0.869034 -0.4562306,0.331591 -0.8001642,0.518179 -2.0609652,1.1181 -0.8512134,0.405028 -0.9855353,0.487208 -0.8049744,0.492505 0.1191978,0.0035 0.5928945,0.04662 1.0526581,0.09585 1.1127322,0.119113 1.9388954,0.07922 2.569726,-0.124097 z M 20.966871,20.76372 c 0.665299,-0.05744 1.21735,-0.112712 1.22678,-0.12282 0.0094,-0.01011 -0.24108,-0.131553 -0.556685,-0.269879 -0.98195,-0.430373 -2.037381,-0.997818 -2.594711,-1.395031 -0.569904,-0.406174 -0.74843,-0.650872 -0.822793,-1.12777 -0.04266,-0.273579 -0.776775,-2.015931 -0.851659,-2.021329 -0.02309,-0.0017 -0.06052,0.16871 -0.08318,0.378613 -0.02266,0.209904 -0.08037,0.590715 -0.128247,0.846248 -0.120811,0.644793 -0.110517,0.825281 0.07136,1.2511 0.158508,0.371113 0.158508,0.371113 0.03096,0.680181 -0.140813,0.341216 -0.163908,0.557682 -0.0595,0.557682 0.03742,0 0.164041,0.04882 0.281372,0.108509 0.23113,0.117563 0.393638,0.384898 0.393638,0.64756 0,0.209822 0.01106,0.216273 0.696824,0.406242 0.688075,0.190609 0.845109,0.194587 2.39585,0.06069 z m 4.646515,-0.392723 c -0.0013,-0.09329 -0.110303,-0.269031 -0.143255,-0.231009 -0.0149,0.0172 -0.04691,0.130345 -0.07112,0.251444 -0.04216,0.210812 -0.03852,0.216485 0.08565,0.133372 0.07132,-0.04774 0.129251,-0.116957 0.12873,-0.153807 z"
     id="path1"
     sodipodi:insensitive="true" />
</svg>
