<?xml version="1.0" encoding="UTF-8" standalone="no"?>
<svg
   id="Logo"
   viewBox="0 0 251 251"
   version="1.1"
   sodipodi:docname="Messenger_Icon.svg"
   inkscape:version="1.4.2 (f4327f4, 2025-05-13)"
   width="251"
   height="251"
   xmlns:inkscape="http://www.inkscape.org/namespaces/inkscape"
   xmlns:sodipodi="http://sodipodi.sourceforge.net/DTD/sodipodi-0.dtd"
   xmlns="http://www.w3.org/2000/svg"
   xmlns:svg="http://www.w3.org/2000/svg">
  <sodipodi:namedview
     id="namedview2"
     pagecolor="#ffffff"
     bordercolor="#000000"
     borderopacity="0.25"
     inkscape:showpageshadow="2"
     inkscape:pageopacity="0.0"
     inkscape:pagecheckerboard="0"
     inkscape:deskcolor="#d1d1d1"
     showgrid="false"
     inkscape:lockguides="true"
     inkscape:zoom="3.4063746"
     inkscape:cx="100.10643"
     inkscape:cy="134.60058"
     inkscape:window-width="1920"
     inkscape:window-height="1057"
     inkscape:window-x="-8"
     inkscape:window-y="-8"
     inkscape:window-maximized="1"
     inkscape:current-layer="Logo" />
  <defs
     id="defs1">
    <style
       id="style1">
      .cls-1 {
        fill: #fff;
      }

      .cls-1, .cls-2 {
        stroke-width: 0px;
      }

      .cls-2 {
        fill: #0866ff;
      }
    </style>
  </defs>
  <path
     class="cls-2"
     d="m 250.5,121.75142 c 0,69.67082 -54.585,121.25143 -125,121.25143 -12.645,0 -24.78,-1.67002 -36.185,-4.80506 -2.215,-0.61501 -4.57,-0.44 -6.675,0.48501 l -24.81,10.95513 c -6.49,2.86503 -13.815,-1.75002 -14.03,-8.84011 L 43.12,218.55756 C 43.035,215.81753 41.805,213.2575 39.76,211.43248 15.435,189.68222 0.5,158.19685 0.5,121.75142 0.5,52.080605 55.085,0.5 125.5,0.5 c 70.415,0 125,51.580605 125,121.25142 z"
     id="path1"
     sodipodi:insensitive="true" />
  <path
     class="cls-1"
     d="m 159.44,156.65683 43.52,-67.260785 c 4.375,-6.76008 -3.73,-14.63017 -10.36,-10.05512 l -45.43,31.335365 c -1.53,1.05502 -3.55,1.08502 -5.11,0.075 L 101.735,84.66099 C 98.32,82.450965 93.765,83.430975 91.56,86.841015 L 48.035,154.10181 c -4.375,6.76007 3.73,14.63017 10.36,10.05511 l 45.44,-31.34037 c 1.53,-1.05501 3.55,-1.08501 5.11,-0.075 l 40.315,26.08531 c 3.415,2.21002 7.97,1.23002 10.18,-2.18003 z"
     id="path2"
     sodipodi:insensitive="true" />
</svg>
