<?xml version="1.0" encoding="UTF-8" standalone="no"?>
<!-- Uploaded to: SVG Repo, www.svgrepo.com, Generator: SVG Repo Mixer Tools -->

<svg
   width="434.07001"
   height="752"
   viewBox="0 0 69.451201 120.32"
   aria-hidden="true"
   role="img"
   class="iconify iconify--noto"
   preserveAspectRatio="xMidYMid"
   version="1.1"
   id="svg6"
   sodipodi:docname="red-question-mark.svg"
   inkscape:version="1.4.2 (f4327f4, 2025-05-13)"
   xmlns:inkscape="http://www.inkscape.org/namespaces/inkscape"
   xmlns:sodipodi="http://sodipodi.sourceforge.net/DTD/sodipodi-0.dtd"
   xmlns="http://www.w3.org/2000/svg"
   xmlns:svg="http://www.w3.org/2000/svg">
  <defs
     id="defs6" />
  <sodipodi:namedview
     id="namedview6"
     pagecolor="#ffffff"
     bordercolor="#000000"
     borderopacity="0.25"
     inkscape:showpageshadow="2"
     inkscape:pageopacity="0.0"
     inkscape:pagecheckerboard="0"
     inkscape:deskcolor="#d1d1d1"
     inkscape:zoom="1"
     inkscape:cx="300"
     inkscape:cy="375.5"
     inkscape:window-width="1920"
     inkscape:window-height="1057"
     inkscape:window-x="-8"
     inkscape:window-y="-8"
     inkscape:window-maximized="1"
     inkscape:current-layer="svg6" />
  <circle
     cx="33.191238"
     cy="108.16"
     r="12"
     fill="#cc3333"
     id="circle1" />
  <circle
     cx="31.591242"
     cy="108.16"
     r="10.3"
     fill="#f44336"
     id="circle2" />
  <path
     d="m 25.791243,104.56 c 1.2,-1.8 3.8,-3.3 6.5,-3.7 0.7,-0.1 1.3,-0.1 1.9,0.1 0.4,0.2 0.8,0.6 0.5,1 -0.2,0.4 -0.7,0.5 -1.1,0.6 -2.5,0.7 -4.8,2.4 -6.2,4.4 -0.5,0.8 -1.4,2.9 -2.4,2.4 -1,-0.7 -0.8,-2.6 0.8,-4.8 z"
     opacity="0.2"
     fill="#ffffff"
     id="path2" />
  <path
     d="m 16.791243,20.46 c -2.1,2 -3.4,4.4 -4,7.4 -0.3,1.9 -2,3.2 -3.8999999,3.2 h 6.8999999 c 1.9,0 3.6,-1.3 3.9,-3.2 0.5,-3 1.9,-5.4 4,-7.4 2.1,-1.9 4.7,-3.1 7.8,-3.6 -1.1,-0.2 -2.3,-0.3 -3.5,-0.3 -4.6,0.1 -8.3,1.4 -11.2,3.9 z"
     fill="#cc3333"
     id="path3" />
  <path
     d="m 60.19124,8.36 c -6.1,-5.5 -14.499997,-8.2 -25.299997,-8.2 -1.2,0 -2.3,0 -3.4,0.1 9.1,0.5 16.4,3.2 21.799997,8.1 6.1,5.5 9.1,13.2 9.1,23 0,8.8 -4.1,17.4 -12.2,25.9 l -9.799997,9.6 -0.3,0.3 c -2.9,3.4 -4.6,8 -5.2,13.9 -0.2,2 -1.9,3.6 -4,3.6 h 6.9 c 2,0 3.8,-1.6 4,-3.6 0.5,-5.9 2.3,-10.5 5.2,-13.9 l 0.3,-0.3 9.799997,-9.6 c 8.2,-8.5 12.2,-17.1 12.2,-25.9 -0.1,-9.8 -3.1,-17.5 -9.1,-23 z"
     fill="#cc3333"
     id="path4" />
  <path
     d="m 34.891243,81.16 c 0.5,-5.9 2.3,-10.5 5.2,-13.9 l 0.3,-0.3 9.799997,-9.6 c 8.2,-8.5 12.2,-17.1 12.2,-25.9 0,-9.8 -3,-17.5 -9.1,-23 -5.399997,-4.9 -12.599997,-7.6 -21.799997,-8.1 -8.9,0.5 -16.2,3.3 -21.8999999,8.2 -5.3,4.6 -8.5,10.6 -9.39999996,18.1 -0.3,2.4 1.59999996,4.4 3.99999996,4.4 h 4.8 c 1.8999999,0 3.5999999,-1.3 3.8999999,-3.2 0.5,-3 1.9,-5.4 4,-7.4 2.8,-2.6 6.6,-3.9 11.2,-3.9 1.2,0 2.4,0.1 3.5,0.3 1.1,-0.2 2.2,-0.3 3.4,-0.3 4.8,0 8.5,1.3 11,4 2.5,2.7 3.799997,6.5 3.799997,11.5 0,3.8 -1.099997,7.4 -3.199997,10.6 -1.4,2.2 -4.7,5.8 -10,10.9 -5.2,5.1 -8.8,9.8 -10.5,14 -1.4,3.4 -2.3,7.7 -2.5,12.9 -0.1,2.3 1.7,4.2 4,4.2 h 3.5 c 1.8,0.1 3.6,-1.5 3.8,-3.5 z"
     fill="#f44336"
     id="path5" />
  <path
     d="m 10.291243,12.06 c 3.4,-4.2 9.9,-7.2 16.4,-7.6 1.6,-0.1 3.2,0 4.5,0.7 1,0.5 1.7,1.6 1,2.6 -0.6,0.8 -1.8,1.1 -2.8,1.3 -6.1,1.2 -12,4.7 -15.9,9.3 -1.5,1.8 -3.9999999,6.8 -6.1999999,5.2 -2.3,-1.9 -1.2,-6.4 2.9999999,-11.5 z"
     opacity="0.2"
     fill="#ffffff"
     id="path6" />
</svg>
