<?xml version="1.0" encoding="UTF-8" standalone="no"?>
<svg
   fill="none"
   height="251"
   viewBox="0 0 251 251"
   width="251"
   version="1.1"
   id="svg18"
   sodipodi:docname="Signal-Logo.svg"
   inkscape:version="1.4.2 (f4327f4, 2025-05-13)"
   xmlns:inkscape="http://www.inkscape.org/namespaces/inkscape"
   xmlns:sodipodi="http://sodipodi.sourceforge.net/DTD/sodipodi-0.dtd"
   xmlns="http://www.w3.org/2000/svg"
   xmlns:svg="http://www.w3.org/2000/svg">
  <defs
     id="defs18">
    <inkscape:path-effect
       effect="fillet_chamfer"
       id="path-effect18"
       is_visible="true"
       lpeversion="1"
       nodesatellites_param="F,0,0,1,0,187.5,0,1 @ F,0,0,1,0,187.5,0,1 @ F,0,0,1,0,187.5,0,1 @ F,0,0,1,0,187.5,0,1"
       radius="187.5"
       unit="px"
       method="auto"
       mode="F"
       chamfer_steps="1"
       flexible="false"
       use_knot_distance="true"
       apply_no_radius="true"
       apply_with_radius="true"
       only_selected="false"
       hide_knots="false" />
    <linearGradient
       id="swatch18"
       inkscape:swatch="solid">
      <stop
         style="stop-color:#000000;stop-opacity:1;"
         offset="0"
         id="stop18" />
    </linearGradient>
  </defs>
  <sodipodi:namedview
     id="namedview18"
     pagecolor="#ffffff"
     bordercolor="#000000"
     borderopacity="0.25"
     inkscape:showpageshadow="2"
     inkscape:pageopacity="0.0"
     inkscape:pagecheckerboard="0"
     inkscape:deskcolor="#d1d1d1"
     showgrid="false"
     inkscape:zoom="3.1666667"
     inkscape:cx="139.89474"
     inkscape:cy="126.78947"
     inkscape:window-width="1920"
     inkscape:window-height="1057"
     inkscape:window-x="-8"
     inkscape:window-y="-8"
     inkscape:window-maximized="1"
     inkscape:current-layer="svg18"
     inkscape:lockguides="true" />
  <path
     d="m 187.96257,0.46257166 h 624.07486 a 187.5,187.5 45 0 1 187.5,187.49999834 v 624.07486 a 187.5,187.5 135 0 1 -187.5,187.5 H 187.96257 A 187.5,187.5 45 0 1 0.46257166,812.03743 V 187.96257 A 187.5,187.5 135 0 1 187.96257,0.46257166 Z"
     fill="#3b45fd"
     id="path1"
     inkscape:path-effect="#path-effect18"
     inkscape:original-d="M 0.46257166,0.46257166 H 999.53743 V 999.53743 H 0.46257166 Z"
     transform="matrix(0.2502315,0,0,0.2502315,0.38425,0.38425)"
     sodipodi:insensitive="true" />
  <g
     fill="#ffffff"
     id="g18"
     transform="matrix(0.23169583,0,0,0.23169583,0.38425,0.38425)"
     sodipodi:insensitive="true">
    <path
       d="m 540,202.5 c 17.51,0 34.708,1.333 51.499,3.904 l -4.828,31.275 c -15.217,-2.33 -30.803,-3.538 -46.671,-3.538 -15.868,0 -31.453,1.208 -46.669,3.538 l -4.828,-31.275 C 505.293,203.833 522.491,202.5 540,202.5 Z"
       id="path2" />
    <path
       d="m 620.092,212.06 -7.508,30.745 c 30.837,7.505 59.844,19.685 86.229,35.746 l 16.428,-27.047 C 686.128,233.782 654.12,220.342 620.092,212.06 Z"
       id="path3" />
    <path
       d="m 739.46,267.718 -18.699,25.527 c 25.216,18.503 47.492,40.78 65.996,65.996 l 25.526,-18.699 C 791.865,312.717 767.285,288.136 739.46,267.718 Z"
       id="path4" />
    <path
       d="m 828.497,364.761 -27.046,16.428 c 16.06,26.385 28.24,55.392 35.745,86.23 l 30.744,-7.509 c -8.281,-34.027 -21.721,-66.035 -39.443,-95.149 z"
       id="path5" />
    <path
       d="m 873.596,488.503 -31.275,4.828 c 2.33,15.216 3.538,30.802 3.538,46.669 0,15.868 -1.208,31.454 -3.538,46.671 l 31.275,4.828 C 876.167,574.708 877.5,557.51 877.5,540 c 0,-17.509 -1.333,-34.707 -3.904,-51.497 z"
       id="path6" />
    <path
       d="m 801.449,698.813 c 16.061,-26.385 28.241,-55.392 35.746,-86.229 l 30.745,7.508 c -8.282,34.027 -21.722,66.036 -39.444,95.15 z"
       id="path7" />
    <path
       d="m 786.755,720.761 25.527,18.699 c -20.418,27.825 -44.999,52.406 -72.824,72.823 l -18.699,-25.526 c 25.216,-18.504 47.493,-40.78 65.996,-65.996 z"
       id="path8" />
    <path
       d="m 698.811,801.45 16.428,27.047 c -29.114,17.722 -61.122,31.162 -95.149,39.443 l -7.509,-30.744 c 30.838,-7.505 59.845,-19.685 86.23,-35.746 z"
       id="path9" />
    <path
       d="m 586.669,842.321 4.828,31.275 c -16.79,2.571 -33.988,3.904 -51.497,3.904 -17.51,0 -34.708,-1.333 -51.499,-3.904 l 4.827,-31.271 c 15.21,2.327 30.795,3.534 46.672,3.534 15.867,0 31.453,-1.208 46.669,-3.538 z"
       id="path10" />
    <path
       d="m 467.414,837.202 -7.507,30.737 c -25.561,-6.221 -49.982,-15.352 -72.893,-27.024 l -32.032,7.474 -7.19,-30.812 43.286,-10.101 10.298,5.246 c 20.75,10.571 42.872,18.844 66.038,24.48 z"
       id="path11" />
    <path
       d="m 321.088,823.808 7.189,30.813 -54.905,12.811 c -36.537,8.525 -69.329,-24.267 -60.804,-60.804 l 12.811,-54.906 30.813,7.19 -12.811,54.905 c -3.197,13.702 9.1,25.999 22.802,22.802 z"
       id="path12" />
    <path
       d="m 262.423,732.208 -30.812,-7.19 7.474,-32.032 C 227.413,670.074 218.281,645.652 212.06,620.09 l 30.737,-7.507 c 5.636,23.168 13.91,45.29 24.481,66.041 l 5.246,10.298 z"
       id="path13" />
    <path
       d="m 237.674,586.669 -31.27,4.828 C 203.833,574.707 202.5,557.509 202.5,540 c 0,-17.51 1.333,-34.708 3.904,-51.499 l 31.275,4.828 c -2.33,15.217 -3.538,30.803 -3.538,46.671 0,15.876 1.207,31.46 3.533,46.669 z"
       id="path14" />
    <path
       d="m 242.805,467.416 -30.745,-7.508 c 8.282,-34.027 21.722,-66.035 39.444,-95.149 l 27.047,16.428 c -16.061,26.385 -28.241,55.392 -35.746,86.229 z"
       id="path15" />
    <path
       d="m 293.245,359.24 -25.527,-18.7 c 20.418,-27.825 44.998,-52.405 72.824,-72.823 l 18.699,25.526 c -25.217,18.504 -47.493,40.78 -65.996,65.997 z"
       id="path16" />
    <path
       d="M 381.189,278.55 364.76,251.503 c 29.114,-17.722 61.123,-31.162 95.15,-39.443 l 7.508,30.744 c -30.837,7.505 -59.844,19.685 -86.229,35.746 z"
       id="path17" />
    <path
       d="m 814.219,540 c 0,151.447 -122.772,274.219 -274.219,274.219 -48.037,0 -93.189,-12.352 -132.454,-34.053 -3.781,-2.09 -8.192,-2.779 -12.398,-1.797 L 273.169,806.83 301.631,684.851 c 0.981,-4.206 0.292,-8.618 -1.797,-12.398 C 278.133,633.189 265.781,588.037 265.781,540 265.781,388.553 388.553,265.781 540,265.781 c 151.447,0 274.219,122.772 274.219,274.219 z"
       id="path18" />
  </g>
</svg>
