<?xml version="1.0" encoding="UTF-8" standalone="no"?>
<svg
   aria-label="Telegram"
   role="img"
   viewBox="0 0 251 251"
   version="1.1"
   id="svg3"
   sodipodi:docname="Telegram_Icon.svg"
   width="251"
   height="251"
   inkscape:version="1.4.2 (f4327f4, 2025-05-13)"
   xmlns:inkscape="http://www.inkscape.org/namespaces/inkscape"
   xmlns:sodipodi="http://sodipodi.sourceforge.net/DTD/sodipodi-0.dtd"
   xmlns="http://www.w3.org/2000/svg"
   xmlns:svg="http://www.w3.org/2000/svg">
  <defs
     id="defs3">
    <inkscape:path-effect
       effect="fillet_chamfer"
       id="path-effect3"
       is_visible="true"
       lpeversion="1"
       nodesatellites_param="F,0,0,1,0,46.875,0,1 @ F,0,0,1,0,46.875,0,1 @ F,0,0,1,0,46.875,0,1 @ F,0,0,1,0,46.875,0,1"
       radius="93.75"
       unit="px"
       method="auto"
       mode="F"
       chamfer_steps="1"
       flexible="false"
       use_knot_distance="true"
       apply_no_radius="true"
       apply_with_radius="true"
       only_selected="false"
       hide_knots="false" />
  </defs>
  <sodipodi:namedview
     id="namedview3"
     pagecolor="#ffffff"
     bordercolor="#000000"
     borderopacity="0.25"
     inkscape:showpageshadow="2"
     inkscape:pageopacity="0.0"
     inkscape:pagecheckerboard="0"
     inkscape:deskcolor="#d1d1d1"
     inkscape:lockguides="true"
     inkscape:zoom="2.3616262"
     inkscape:cx="109.88191"
     inkscape:cy="92.520994"
     inkscape:window-width="1920"
     inkscape:window-height="1057"
     inkscape:window-x="-8"
     inkscape:window-y="-8"
     inkscape:window-maximized="1"
     inkscape:current-layer="svg3" />
  <path
     width="250"
     height="250"
     rx="0"
     fill="#37aee2"
     id="rect1"
     x="0.5"
     y="0.5"
     style="stroke-width:0.488281"
     inkscape:path-effect="#path-effect3"
     sodipodi:type="rect"
     ry="0"
     d="m 47.375,0.5 h 156.25 A 46.875,46.875 45 0 1 250.5,47.375 v 156.25 A 46.875,46.875 135 0 1 203.625,250.5 H 47.375 A 46.875,46.875 45 0 1 0.5,203.625 V 47.375 A 46.875,46.875 135 0 1 47.375,0.5 Z"
     sodipodi:insensitive="true" />
  <path
     fill="#c8daea"
     d="m 97.66797,197.76562 c -5.371095,0 -4.882815,-1.95312 -6.34766,-6.83593 l -15.625,-51.26953 119.62891,-70.312505"
     id="path1"
     style="stroke-width:0.488281"
     sodipodi:insensitive="true" />
  <path
     fill="#a9c9dd"
     d="m 97.66797,197.76562 c 3.41797,0 5.37109,-1.95312 7.8125,-3.90625 l 21.97266,-20.99609 -27.34375,-16.60156"
     id="path2"
     style="stroke-width:0.488281"
     sodipodi:insensitive="true" />
  <path
     fill="#f6fbfe"
     d="m 100.10938,156.26172 65.91796,48.33984 c 6.83594,4.39453 12.69532,1.95313 14.64844,-6.83594 L 207.53125,71.78906 c 2.44141,-10.742185 -4.39453,-15.625 -11.71875,-12.20703 L 39.074219,120.12891 c -10.253907,3.90625 -10.253907,10.2539 -1.953125,12.69531 L 77.648435,145.51953 170.42187,86.4375 c 4.39454,-2.441405 8.30079,-1.464845 5.3711,1.953125"
     id="path3"
     style="stroke-width:0.488281"
     sodipodi:insensitive="true" />
</svg>
