<?xml version="1.0" encoding="UTF-8" standalone="no"?>
<svg
   version="1.1"
   width="251"
   height="251"
   viewBox="0 0 251 251"
   xml:space="preserve"
   id="svg6"
   sodipodi:docname="Viber-Logo.svg"
   inkscape:version="1.4.2 (f4327f4, 2025-05-13)"
   xmlns:inkscape="http://www.inkscape.org/namespaces/inkscape"
   xmlns:sodipodi="http://sodipodi.sourceforge.net/DTD/sodipodi-0.dtd"
   xmlns="http://www.w3.org/2000/svg"
   xmlns:svg="http://www.w3.org/2000/svg"><defs
   id="defs6" /><sodipodi:namedview
   id="namedview6"
   pagecolor="#ffffff"
   bordercolor="#000000"
   borderopacity="0.25"
   inkscape:showpageshadow="2"
   inkscape:pageopacity="0.0"
   inkscape:pagecheckerboard="0"
   inkscape:deskcolor="#d1d1d1"
   showgrid="false"
   inkscape:zoom="3.3398438"
   inkscape:cx="90.722806"
   inkscape:cy="88.776607"
   inkscape:window-width="1920"
   inkscape:window-height="1057"
   inkscape:window-x="-8"
   inkscape:window-y="-8"
   inkscape:window-maximized="1"
   inkscape:current-layer="svg6"
   inkscape:lockguides="true" />
<g
   style="opacity:1;fill:none;fill-rule:nonzero;stroke:none;stroke-width:0;stroke-linecap:butt;stroke-linejoin:miter;stroke-miterlimit:10;stroke-dasharray:none"
   transform="matrix(2.7777778,0,0,2.7777778,0.5,0.5)"
   id="g6"
   sodipodi:insensitive="true">
	<path
   d="M 72.359,90 H 17.641 C 7.898,90 0,82.102 0,72.359 V 17.641 C 0,7.898 7.898,0 17.641,0 H 72.358 C 82.102,0 90,7.898 90,17.641 V 72.358 C 90,82.102 82.102,90 72.359,90 Z"
   style="opacity:1;fill:#7360f2;fill-rule:nonzero;stroke:none;stroke-width:1;stroke-linecap:butt;stroke-linejoin:miter;stroke-miterlimit:10;stroke-dasharray:none"
   stroke-linecap="round"
   id="path1" />
	<path
   d="m 67.028,20.852 c -1.491,-1.376 -7.516,-5.75 -20.937,-5.809 0,0 -15.827,-0.954 -23.542,6.123 -4.295,4.296 -5.806,10.581 -5.965,18.374 -0.159,7.793 -0.366,22.397 13.712,26.357 h 0.014 l -0.01,6.042 c 0,0 -0.09,2.446 1.521,2.945 1.948,0.605 3.092,-1.254 4.952,-3.258 1.021,-1.1 2.431,-2.716 3.493,-3.952 9.628,0.81 17.032,-1.042 17.873,-1.315 1.944,-0.63 12.944,-2.04 14.733,-16.643 1.847,-15.052 -0.893,-24.573 -5.844,-28.864 z m 1.632,27.784 c -1.51,12.193 -10.432,12.959 -12.077,13.487 -0.7,0.225 -7.203,1.843 -15.381,1.309 0,0 -6.094,7.352 -7.997,9.263 -0.297,0.299 -0.646,0.42 -0.88,0.36 -0.328,-0.08 -0.418,-0.468 -0.414,-1.035 0.005,-0.81 0.052,-10.041 0.052,-10.041 0,0 -0.007,0 0,0 C 20.055,58.673 20.749,46.243 20.884,39.734 c 0.135,-6.509 1.358,-11.841 4.99,-15.427 6.526,-5.911 19.969,-5.028 19.969,-5.028 11.353,0.05 16.793,3.468 18.054,4.614 4.189,3.586 6.322,12.168 4.762,24.74 v 0.003 z"
   style="opacity:1;fill:#ffffff;fill-rule:nonzero;stroke:none;stroke-width:1;stroke-linecap:butt;stroke-linejoin:miter;stroke-miterlimit:10;stroke-dasharray:none"
   stroke-linecap="round"
   id="path2" />
	<path
   d="m 51.615,39.958 c -0.402,0 -0.737,-0.316 -0.757,-0.721 -0.128,-2.579 -1.341,-3.84 -3.818,-3.97 -0.419,-0.022 -0.74,-0.379 -0.718,-0.798 0.022,-0.419 0.377,-0.741 0.798,-0.718 3.27,0.171 5.087,2.042 5.255,5.41 0.021,0.419 -0.302,0.775 -0.72,0.796 -0.015,10e-4 -0.027,10e-4 -0.04,10e-4 z"
   style="opacity:1;fill:#ffffff;fill-rule:nonzero;stroke:none;stroke-width:1;stroke-linecap:butt;stroke-linejoin:miter;stroke-miterlimit:10;stroke-dasharray:none"
   stroke-linecap="round"
   id="path3" />
	<path
   d="m 55.51,41.264 c -0.006,0 -0.011,0 -0.017,0 -0.419,-0.009 -0.752,-0.356 -0.742,-0.775 0.056,-2.594 -0.685,-4.695 -2.265,-6.422 -1.579,-1.723 -3.742,-2.663 -6.613,-2.873 -0.418,-0.031 -0.732,-0.394 -0.702,-0.812 0.031,-0.418 0.396,-0.732 0.812,-0.702 3.23,0.236 5.794,1.368 7.622,3.362 1.832,2.001 2.728,4.518 2.663,7.48 -0.008,0.413 -0.346,0.742 -0.758,0.742 z"
   style="opacity:1;fill:#ffffff;fill-rule:nonzero;stroke:none;stroke-width:1;stroke-linecap:butt;stroke-linejoin:miter;stroke-miterlimit:10;stroke-dasharray:none"
   stroke-linecap="round"
   id="path4" />
	<path
   d="m 59.497,42.823 c -0.417,0 -0.756,-0.336 -0.759,-0.753 -0.035,-4.58 -1.409,-8.224 -4.085,-10.832 -2.681,-2.613 -6.068,-3.952 -10.068,-3.98 -0.419,-0.003 -0.757,-0.345 -0.754,-0.764 0.003,-0.417 0.342,-0.754 0.759,-0.754 0.002,0 0.004,0 0.005,0 4.406,0.031 8.146,1.515 11.117,4.411 2.976,2.902 4.505,6.908 4.543,11.908 0.003,0.419 -0.334,0.762 -0.753,0.765 -0.001,-10e-4 -0.003,-10e-4 -0.005,-10e-4 z"
   style="opacity:1;fill:#ffffff;fill-rule:nonzero;stroke:none;stroke-width:1;stroke-linecap:butt;stroke-linejoin:miter;stroke-miterlimit:10;stroke-dasharray:none"
   stroke-linecap="round"
   id="path5" />
	<path
   d="m 47.23,49.365 c 0,0 1.067,0.09 1.641,-0.618 l 1.12,-1.409 c 0.54,-0.699 1.844,-1.144 3.121,-0.433 0.957,0.546 1.886,1.139 2.783,1.777 0.847,0.623 2.582,2.071 2.588,2.071 0.827,0.698 1.017,1.722 0.455,2.803 0,0.006 -0.005,0.017 -0.005,0.023 -0.62,1.074 -1.407,2.043 -2.331,2.87 -0.011,0.005 -0.011,0.011 -0.021,0.016 -0.803,0.671 -1.592,1.053 -2.367,1.144 -0.114,0.02 -0.23,0.027 -0.346,0.022 -0.342,0.003 -0.682,-0.049 -1.007,-0.155 L 52.836,57.439 C 51.642,57.102 49.649,56.26 46.329,54.428 44.408,53.381 42.579,52.173 40.862,50.817 40.001,50.138 39.18,49.41 38.403,48.636 L 38.32,48.553 38.237,48.47 v 0 L 38.154,48.387 C 38.126,48.36 38.099,48.332 38.071,48.304 37.298,47.527 36.57,46.706 35.89,45.845 34.534,44.128 33.326,42.299 32.279,40.379 30.448,37.058 29.605,35.067 29.268,33.871 l -0.037,-0.025 c -0.106,-0.325 -0.158,-0.665 -0.154,-1.007 -0.006,-0.116 10e-4,-0.232 0.021,-0.346 0.097,-0.774 0.479,-1.563 1.146,-2.369 0.005,-0.01 0.011,-0.01 0.016,-0.021 0.827,-0.924 1.796,-1.711 2.87,-2.33 0.005,0 0.016,-0.005 0.023,-0.005 1.08,-0.563 2.105,-0.372 2.802,0.45 0.005,0.005 1.451,1.74 2.071,2.588 0.639,0.898 1.232,1.828 1.777,2.786 0.711,1.276 0.266,2.582 -0.433,3.121 l -1.409,1.12 c -0.711,0.574 -0.618,1.641 -0.618,1.641 0,0 2.089,7.901 9.887,9.891 z"
   style="opacity:1;fill:#ffffff;fill-rule:nonzero;stroke:none;stroke-width:1;stroke-linecap:butt;stroke-linejoin:miter;stroke-miterlimit:10;stroke-dasharray:none"
   stroke-linecap="round"
   id="path6" />
</g>
</svg>
