<?xml version="1.0" encoding="UTF-8" standalone="no"?>
<svg
   id="Layer_1"
   data-name="Layer 1"
   viewBox="0 0 251.00001 251.00001"
   version="1.1"
   sodipodi:docname="WeChat-Icon.svg"
   inkscape:version="1.4.2 (f4327f4, 2025-05-13)"
   inkscape:export-filename="H:\My Drive\Seven Angels Massage Website Photos\WeChat-Icon.png"
   inkscape:export-xdpi="480"
   inkscape:export-ydpi="480"
   width="251"
   height="251"
   xmlns:inkscape="http://www.inkscape.org/namespaces/inkscape"
   xmlns:sodipodi="http://sodipodi.sourceforge.net/DTD/sodipodi-0.dtd"
   xmlns:xlink="http://www.w3.org/1999/xlink"
   xmlns="http://www.w3.org/2000/svg"
   xmlns:svg="http://www.w3.org/2000/svg"
   xmlns:rdf="http://www.w3.org/1999/02/22-rdf-syntax-ns#"
   xmlns:cc="http://creativecommons.org/ns#"
   xmlns:dc="http://purl.org/dc/elements/1.1/">
  <sodipodi:namedview
     id="namedview2"
     pagecolor="#ffffff"
     bordercolor="#000000"
     borderopacity="0.25"
     inkscape:showpageshadow="2"
     inkscape:pageopacity="0.0"
     inkscape:pagecheckerboard="0"
     inkscape:deskcolor="#d1d1d1"
     inkscape:lockguides="true"
     inkscape:zoom="2.46"
     inkscape:cx="145.3252"
     inkscape:cy="128.65854"
     inkscape:window-width="1920"
     inkscape:window-height="1057"
     inkscape:window-x="-8"
     inkscape:window-y="-8"
     inkscape:window-maximized="1"
     inkscape:current-layer="Layer_1" />
  <defs
     id="defs1">
    <inkscape:path-effect
       effect="fillet_chamfer"
       id="path-effect1"
       is_visible="true"
       lpeversion="1"
       nodesatellites_param="F,0,0,1,0,0,0,1 @ F,0,0,1,0,0,0,1 @ F,0,0,1,0,0,0,1 @ F,0,0,1,0,0,0,1 @ F,0,0,1,0,0,0,1 @ F,0,0,1,0,0,0,1 @ F,0,0,1,0,0,0,1 @ F,0,0,1,0,0,0,1 | F,0,0,1,0,0,0,1 @ F,0,0,1,0,0,0,1 @ F,0,0,1,0,0,0,1 @ F,0,0,1,0,0,0,1 @ F,0,0,1,0,0,0,1 @ F,0,0,1,0,0,0,1 @ F,0,0,1,0,0,0,1 @ F,0,0,1,0,0,0,1 @ F,0,0,1,0,0,0,1 @ F,0,0,1,0,0,0,1 @ F,0,0,1,0,0,0,1 | F,0,0,1,0,0,0,1 @ F,0,0,1,0,0,0,1 @ F,0,0,1,0,0,0,1 @ F,0,0,1,0,0,0,1 @ F,0,0,1,0,0,0,1 @ F,0,0,1,0,0,0,1 @ F,0,0,1,0,0,0,1 | F,0,0,1,0,0,0,1 @ F,0,0,1,0,0,0,1 @ F,0,0,1,0,0,0,1 @ F,0,0,1,0,0,0,1 @ F,0,0,1,0,0,0,1 @ F,0,0,1,0,0,0,1 @ F,0,0,1,0,0,0,1 | F,0,0,1,0,0,0,1 @ F,0,0,1,0,0,0,1 @ F,0,0,1,0,0,0,1 @ F,0,0,1,0,0,0,1 @ F,0,0,1,0,0,0,1 @ F,0,0,1,0,0,0,1 @ F,0,0,1,0,0,0,1 @ F,0,0,1,0,0,0,1 @ F,0,0,1,0,0,0,1 @ F,0,0,1,0,0,0,1 | F,0,0,1,0,0,0,1 @ F,0,0,1,0,0,0,1 @ F,0,0,1,0,0,0,1 @ F,0,0,1,0,0,0,1 @ F,0,0,1,0,0,0,1 | F,0,0,1,0,0,0,1 @ F,0,0,1,0,0,0,1 @ F,0,0,1,0,0,0,1 @ F,0,0,1,0,0,0,1 @ F,0,0,1,0,0,0,1"
       radius="0"
       unit="px"
       method="auto"
       mode="F"
       chamfer_steps="1"
       flexible="false"
       use_knot_distance="true"
       apply_no_radius="true"
       apply_with_radius="true"
       only_selected="false"
       hide_knots="false" />
    <linearGradient
       id="swatch6"
       inkscape:swatch="solid">
      <stop
         style="stop-color:#ffffff;stop-opacity:1;"
         offset="0"
         id="stop6" />
    </linearGradient>
    <style
       id="style1">.cls-1{fill:#00c70a;fill-rule:evenodd;}.cls-2{fill:#fff;}</style>
    <linearGradient
       inkscape:collect="always"
       xlink:href="#swatch6"
       id="linearGradient6"
       x1="15.153814"
       y1="61.479511"
       x2="107.794"
       y2="61.479511"
       gradientUnits="userSpaceOnUse"
       gradientTransform="matrix(2.034491,0,0,2.034491,0.5,0.5)" />
  </defs>
  <title
     id="title1">wechat-app</title>
  <path
     id="path1"
     class="cls-1"
     d="M 51.767583,0.5 C 23.48611,0.57910616 0.57910616,23.48611 0.5,51.767583 V 199.22844 C 0.5769226,227.51147 23.484563,250.42088 51.767583,250.5 H 199.22844 c 28.28457,-0.0769 51.19463,-22.98699 51.27156,-51.27156 V 51.767583 C 250.42088,23.484563 227.51147,0.5769226 199.22844,0.5 Z m 47.226416,48.704601 h 0.02384 c 33.923151,0 62.206131,20.966605 67.352781,47.818484 -32.9162,-2.058644 -75.588081,22.624245 -63.23611,65.811015 -8.855097,0.50741 -17.730718,-0.53749 -26.225867,-3.0875 -1.948262,-0.46674 -4.002987,-0.0933 -5.662401,1.02917 l -15.417629,8.72606 c -1.904918,0.6696 -3.742335,-1.15363 -3.087499,-3.06366 l 3.60407,-12.35397 c 0.586309,-1.98487 -0.264882,-4.11285 -2.058333,-5.14583 -14.410621,-10.27084 -23.138357,-25.68884 -23.138357,-42.67266 0,-31.349562 30.431586,-57.061109 67.845505,-57.061109 z M 74.154931,78.764324 c -5.289788,-0.261909 -9.722089,3.956344 -9.722089,9.252563 0,5.296219 4.432301,9.514472 9.722089,9.252563 0.752498,2.58e-4 1.502735,-0.08236 2.237144,-0.246365 v -0.08742 c 9.254561,-2.378775 9.254561,-15.522363 0,-17.901138 -0.731354,-0.183952 -1.483024,-0.27474 -2.237144,-0.270205 z m 45.760149,0 c -5.28979,-0.261909 -9.72209,3.956344 -9.72209,9.252563 0,5.296219 4.4323,9.514472 9.72209,9.252563 0.7525,2.58e-4 1.50274,-0.08236 2.23715,-0.246365 v -0.08742 c 9.16666,-2.446612 9.16666,-15.454526 0,-17.901138 -0.73136,-0.183953 -1.48303,-0.27474 -2.23715,-0.270205 z m 42.87531,22.868156 c 31.34982,0 57.06112,21.10293 57.06112,47.30589 0,14.4105 -7.69699,27.25569 -19.5343,36.00493 -1.27108,0.55418 -2.08994,1.81216 -2.08217,3.19876 l 3.0875,11.1897 c 0.51466,2.05864 -1.03091,3.08766 -2.57491,2.05833 l -12.84272,-7.20814 c -1.41209,-0.78867 -3.08289,-0.97351 -4.63323,-0.51259 -6.0255,1.68137 -12.24949,2.54607 -18.50513,2.57092 -31.3722,0 -56.56839,-21.09895 -56.56839,-47.30191 0,-26.20296 25.24241,-47.30589 56.59223,-47.30589 z m -21.03632,24.43773 c -4.09692,0.21993 -7.30614,3.60603 -7.30614,7.70881 0,4.10279 3.20922,7.48889 7.30614,7.70882 0.67232,-0.003 1.34192,-0.0857 1.99476,-0.24636 7.65715,-2.02867 7.65715,-12.89623 0,-14.9249 -0.65284,-0.16069 -1.32244,-0.2434 -1.99476,-0.24637 z m 38.06326,0 c -4.41987,-0.23727 -8.13381,3.28262 -8.13381,7.70881 0,4.4262 3.71394,7.94609 8.13381,7.70882 0.66436,-0.005 1.32586,-0.0873 1.97092,-0.24636 7.65715,-2.02867 7.65715,-12.89623 0,-14.9249 -0.64506,-0.15904 -1.30656,-0.24173 -1.97092,-0.24637 z"
     style="stroke-width:2.03449"
     inkscape:path-effect="#path-effect1"
     inkscape:original-d="M 51.767583,0.5 A 51.411587,51.411587 0 0 0 0.5,51.767583 V 199.22844 A 51.411587,51.411587 0 0 0 51.767583,250.5 H 199.22844 A 51.411587,51.411587 0 0 0 250.5,199.22844 V 51.767583 A 51.411587,51.411587 0 0 0 199.22844,0.5 Z m 47.226416,48.704601 h 0.02384 c 33.923151,0 62.206131,20.966605 67.352781,47.818484 -32.9162,-2.058644 -75.588081,22.624245 -63.23611,65.811015 a 76.080933,76.080315 0 0 1 -26.225867,-3.0875 7.1381819,7.1381239 0 0 0 -5.662401,1.02917 l -15.417629,8.72606 a 2.4166886,2.4166689 0 0 1 -3.087499,-3.06366 l 3.60407,-12.35397 a 4.4753491,4.4753127 0 0 0 -2.058333,-5.14583 C 39.87623,138.66753 31.148494,123.24953 31.148494,106.26571 c 0,-31.349562 30.431586,-57.061109 67.845505,-57.061109 z M 74.154931,78.764324 a 9.2639726,9.2638974 0 1 0 0,18.505126 10.24855,10.248466 0 0 0 2.237144,-0.246365 v -0.08742 a 9.2415959,9.2415206 0 0 0 0,-17.901138 8.9506983,8.9506254 0 0 0 -2.237144,-0.270205 z m 45.760149,0 a 9.2639726,9.2638974 0 1 0 0,18.505126 10.24855,10.248466 0 0 0 2.23715,-0.246365 v -0.08742 a 9.2639726,9.2638974 0 0 0 0,-17.901138 8.9506983,8.9506254 0 0 0 -2.23715,-0.270205 z m 42.87531,22.868156 c 31.34982,0 57.06112,21.10293 57.06112,47.30589 0,14.4105 -7.69699,27.25569 -19.5343,36.00493 a 3.4683955,3.4683672 0 0 0 -2.08217,3.19876 l 3.0875,11.1897 c 0.51466,2.05864 -1.03091,3.08766 -2.57491,2.05833 l -12.84272,-7.20814 a 5.9969681,5.9969193 0 0 0 -4.63323,-0.51259 69.882578,69.88201 0 0 1 -18.50513,2.57092 c -31.3722,0 -56.56839,-21.09895 -56.56839,-47.30191 0,-26.20296 25.24241,-47.30589 56.59223,-47.30589 z m -21.03632,24.43773 a 7.7199775,7.7199148 0 0 0 0,15.41763 8.5031629,8.5030938 0 0 0 1.99476,-0.24636 7.7199775,7.7199148 0 0 0 0,-14.9249 8.5031629,8.5030938 0 0 0 -1.99476,-0.24637 z m 38.06326,0 a 7.7199775,7.7199148 0 1 0 0,15.41763 8.4807868,8.4807176 0 0 0 1.97092,-0.24636 7.7199775,7.7199148 0 0 0 0,-14.9249 8.4807868,8.4807176 0 0 0 -1.97092,-0.24637 z"
     sodipodi:insensitive="true" />
  <path
     id="path6"
     style="fill:url(#linearGradient6);stroke-width:1;stroke-dasharray:none"
     d="m 192.37069,197.53455 c -5.57203,-3.16042 -7.59589,-4.10743 -8.79899,-4.11728 -0.85937,-0.007 -3.92972,0.4957 -6.82299,1.11718 -4.82138,1.03564 -6.00263,1.1291 -14.15106,1.1197 -7.59752,-0.009 -9.50085,-0.14293 -13.0868,-0.92243 -23.81644,-5.17708 -40.57759,-21.45802 -42.82857,-41.60152 -2.29381,-20.52678 12.55802,-40.62848 35.44641,-47.97612 7.87586,-2.52832 10.45312,-2.89407 20.46896,-2.90488 8.17783,-0.009 9.82966,0.10449 13.64598,0.93614 24.60624,5.36223 41.81027,22.55343 43.26035,43.22809 0.96962,13.82468 -5.48419,27.03811 -18.3461,37.56153 -2.37351,1.94196 -2.99798,2.68508 -2.99798,3.56754 0,0.61306 0.65128,3.49075 1.4473,6.39488 1.61506,5.89231 1.74525,7.12105 0.7932,7.48639 -0.35975,0.13806 -0.68539,0.24296 -0.72365,0.23314 -0.0383,-0.01 -3.32598,-1.86489 -7.30606,-4.12236 z M 145.0404,140.93791 c 3.09453,-1.40565 5.11293,-5.02431 4.59221,-8.23311 -0.3881,-2.39162 -2.14408,-4.88292 -4.11376,-5.83643 -6.06479,-2.93591 -12.4633,2.08706 -10.99645,8.63245 1.09832,4.9009 6.05621,7.4638 10.518,5.43709 z m 38.04333,0 c 2.10512,-0.95623 3.75512,-2.89635 4.35367,-5.11918 1.36797,-5.08026 -2.38718,-9.8171 -7.78253,-9.8171 -2.57974,0 -4.07523,0.52976 -5.61911,1.9905 -1.74331,1.64943 -2.39986,3.20192 -2.39986,5.67474 0,3.57346 1.80967,6.30158 5.0336,7.58823 1.63286,0.65167 4.60483,0.5047 6.41423,-0.31719 z m -129.343748,28.0361 c -1.088544,-0.63402 -0.906559,-2.08461 1.137164,-9.0642 1.023449,-3.49521 1.860815,-6.90081 1.860815,-7.56801 0,-1.36215 -1.013577,-2.45321 -6.535788,-7.03543 C 41.841137,138.36854 35.622921,128.6235 32.870674,118.14485 31.344724,112.3351 31.095275,103.03138 32.308005,97.158939 34.575783,86.177603 39.647574,77.250979 48.369821,68.889282 61.349859,56.445798 79.452172,49.50146 98.909474,49.50146 c 20.327456,0 38.849966,7.246983 52.109776,20.388093 4.58661,4.545548 7.92806,9.035315 10.55391,14.18084 1.74963,3.428502 4.33261,10.556569 4.33261,11.956384 0,0.485257 -0.60261,0.615328 -2.85079,0.615328 -6.9323,0 -15.83418,1.461354 -22.98437,3.773175 -5.17775,1.67408 -13.76713,5.97427 -18.1912,9.10724 -4.43976,3.14407 -10.07943,8.626 -12.746,12.38947 -7.97979,11.2623 -10.087349,23.73725 -6.68146,39.5485 l 0.28949,1.34392 h -3.672474 c -4.994428,0 -13.111111,-1.00702 -18.270134,-2.26673 -6.847853,-1.67209 -6.473854,-1.76079 -16.532119,3.92079 -4.831577,2.72919 -9.013823,4.95652 -9.293883,4.9496 -0.280059,-0.007 -0.834841,-0.20225 -1.232848,-0.43406 z M 77.827197,96.607356 c 3.800893,-1.723159 5.543303,-4.440297 5.567149,-8.681483 0.01302,-2.321474 -0.168171,-3.017026 -1.236181,-4.744483 -0.771559,-1.247976 -2.020584,-2.499721 -3.257108,-3.264203 -1.745333,-1.079057 -2.394545,-1.239988 -5.002246,-1.239988 -2.607703,0 -3.256915,0.160929 -5.00225,1.239988 -1.236519,0.764482 -2.485544,2.016227 -3.257108,3.264203 -2.372481,3.837397 -1.445284,9.304947 2.051048,12.094735 2.891253,2.306985 6.84042,2.825623 10.136696,1.331231 z m 45.396493,0.220549 c 3.53388,-1.47394 5.86113,-4.995748 5.86113,-8.869604 0,-8.588366 -10.62187,-12.646748 -16.60385,-6.343966 -3.43825,3.622633 -3.1633,9.723701 0.59943,13.301256 2.5589,2.432964 6.92255,3.255643 10.14329,1.912314 z"
     inkscape:label="path2"
     sodipodi:insensitive="true" />
  <metadata
     id="metadata1">
    <rdf:RDF>
      <cc:Work
         rdf:about="">
        <dc:title>wechat-app</dc:title>
      </cc:Work>
    </rdf:RDF>
  </metadata>
</svg>
