<?xml version="1.0" encoding="UTF-8" standalone="no"?>
<svg
   id="Layer_1"
   data-name="Layer 1"
   viewBox="0 0 251 251"
   version="1.1"
   sodipodi:docname="WhatsApp-Icon.svg"
   width="251"
   height="251"
   inkscape:version="1.4.2 (f4327f4, 2025-05-13)"
   xmlns:inkscape="http://www.inkscape.org/namespaces/inkscape"
   xmlns:sodipodi="http://sodipodi.sourceforge.net/DTD/sodipodi-0.dtd"
   xmlns="http://www.w3.org/2000/svg"
   xmlns:svg="http://www.w3.org/2000/svg"
   xmlns:rdf="http://www.w3.org/1999/02/22-rdf-syntax-ns#"
   xmlns:cc="http://creativecommons.org/ns#"
   xmlns:dc="http://purl.org/dc/elements/1.1/">
  <sodipodi:namedview
     id="namedview3"
     pagecolor="#ffffff"
     bordercolor="#000000"
     borderopacity="0.25"
     inkscape:showpageshadow="2"
     inkscape:pageopacity="0.0"
     inkscape:pagecheckerboard="0"
     inkscape:deskcolor="#d1d1d1"
     inkscape:lockguides="true"
     inkscape:zoom="2.3616262"
     inkscape:cx="136.55845"
     inkscape:cy="121.31471"
     inkscape:window-width="1920"
     inkscape:window-height="1057"
     inkscape:window-x="-8"
     inkscape:window-y="-8"
     inkscape:window-maximized="1"
     inkscape:current-layer="Layer_1" />
  <defs
     id="defs2">
    <inkscape:path-effect
       effect="fillet_chamfer"
       id="path-effect3"
       is_visible="true"
       lpeversion="1"
       nodesatellites_param="F,0,0,1,0,0,0,1 @ F,0,0,1,0,0,0,1 @ F,0,0,1,0,0,0,1 @ F,0,0,1,0,0,0,1 @ F,0,0,1,0,0,0,1 @ F,0,0,1,0,0,0,1 @ F,0,0,1,0,0,0,1 @ F,0,0,1,0,0,0,1 @ F,0,0,1,0,0,0,1 @ F,0,0,1,0,0,0,1 @ F,0,0,1,0,0,0,1 @ F,0,0,1,0,0,0,1 @ F,0,0,1,0,0,0,1 @ F,0,0,1,0,0,0,1 @ F,0,0,1,0,0,0,1 @ F,0,0,1,0,0,0,1 @ F,0,0,1,0,0,0,1 @ F,0,0,1,0,0,0,1 @ F,0,0,1,0,0,0,1 @ F,0,0,1,0,0,0,1 @ F,0,0,1,0,0,0,1 @ F,0,0,1,0,0,0,1 @ F,0,0,1,0,0,0,1 @ F,0,0,1,0,0,0,1 @ F,0,0,1,0,0,0,1 @ F,0,0,1,0,0,0,1 @ F,0,0,1,0,0,0,1 @ F,0,0,1,0,0,0,1 @ F,0,0,1,0,0,0,1 @ F,0,0,1,0,0,0,1 @ F,0,0,1,0,0,0,1 @ F,0,0,1,0,0,0,1"
       radius="0"
       unit="px"
       method="auto"
       mode="F"
       chamfer_steps="1"
       flexible="false"
       use_knot_distance="true"
       apply_no_radius="true"
       apply_with_radius="true"
       only_selected="false"
       hide_knots="false" />
    <style
       id="style1">.cls-1,.cls-2{fill-rule:evenodd;}.cls-1{fill:url(#linear-gradient);}.cls-2{fill:#fff;}</style>
    <linearGradient
       id="linear-gradient"
       x1="1337.28"
       y1="518.23999"
       x2="1337.28"
       y2="-2164.8201"
       gradientTransform="matrix(0.19,0,0,-0.19,0.81,98.89)"
       gradientUnits="userSpaceOnUse">
      <stop
         offset="0"
         stop-color="#61fd7d"
         id="stop1" />
      <stop
         offset="1"
         stop-color="#2bb826"
         id="stop2" />
    </linearGradient>
  </defs>
  <title
     id="title2">wa</title>
  <path
     class="cls-1"
     d="m 512,382.07 c 0,2.8 -0.09,8.88 -0.26,13.58 -0.41,11.49 -1.32,26.32 -2.7,33.07 -1.84124,9.60852 -4.95886,18.92775 -9.27,27.71 -9.48187,18.72266 -24.69862,33.92539 -43.43,43.39 -8.8343,4.32306 -18.20754,7.44411 -27.87,9.28 -6.69,1.35 -21.41,2.24 -32.82,2.65 -4.71,0.17 -10.79,0.25 -13.58,0.25 h -252.1 c -2.8,0 -8.88,-0.09 -13.58,-0.26 C 104.9,511.33 90.07,510.42 83.32,509.05 73.709415,507.19939 64.387675,504.0787 55.6,499.77 36.862115,490.28002 21.648405,475.04879 12.18,456.3 7.8569408,447.4657 4.7358924,438.09246 2.9,428.43 1.55,421.74 0.66,407 0.25,395.61 0.08,390.91 0,384.82 0,382 V 129.9 C 0,127.1 0.09,121.02 0.25,116.32 0.71,104.86 1.62,90 3,83.28 4.8474246,73.669894 7.9647537,64.348172 12.27,55.56 21.761596,36.846877 36.975956,21.650033 55.7,12.18 64.534301,7.8569408 73.907536,4.7358924 83.57,2.9 90.26,1.55 105,0.66 116.39,0.25 121.09,0.08 127.18,0 130,0 h 252.1 c 2.8,0 8.88,0.09 13.58,0.25 11.46,0.46 26.32,1.37 33.04,2.75 9.61011,1.8474246 18.93183,4.9647537 27.72,9.27 18.71312,9.491596 33.90997,24.705956 43.38,43.43 4.32306,8.834301 7.44411,18.207536 9.28,27.87 1.35,6.69 2.24,21.41 2.65,32.82 0.17,4.7 0.25,10.79 0.25,13.58 z"
     id="path2"
     inkscape:path-effect="#path-effect3"
     inkscape:original-d="m 512,382.07 c 0,2.8 -0.09,8.88 -0.26,13.58 -0.41,11.49 -1.32,26.32 -2.7,33.07 a 109.76,109.76 0 0 1 -9.27,27.71 98.45,98.45 0 0 1 -43.43,43.39 110.21,110.21 0 0 1 -27.87,9.28 c -6.69,1.35 -21.41,2.24 -32.82,2.65 -4.71,0.17 -10.79,0.25 -13.58,0.25 h -252.1 c -2.8,0 -8.88,-0.09 -13.58,-0.26 -11.49,-0.41 -26.32,-1.32 -33.07,-2.69 A 110.37,110.37 0 0 1 55.6,499.77 98.5,98.5 0 0 1 12.18,456.3 110.21,110.21 0 0 1 2.9,428.43 C 1.55,421.74 0.66,407 0.25,395.61 0.08,390.91 0,384.82 0,382 V 129.9 C 0,127.1 0.09,121.02 0.25,116.32 0.71,104.86 1.62,90 3,83.28 A 110.37,110.37 0 0 1 12.27,55.56 98.59,98.59 0 0 1 55.7,12.18 110.21,110.21 0 0 1 83.57,2.9 C 90.26,1.55 105,0.66 116.39,0.25 121.09,0.08 127.18,0 130,0 h 252.1 c 2.8,0 8.88,0.09 13.58,0.25 C 407.14,0.71 422,1.62 428.72,3 a 110.37,110.37 0 0 1 27.72,9.27 98.59,98.59 0 0 1 43.38,43.43 110.21,110.21 0 0 1 9.28,27.87 c 1.35,6.69 2.24,21.41 2.65,32.82 0.17,4.7 0.25,10.79 0.25,13.58 z"
     style="fill:url(#linear-gradient)"
     transform="matrix(0.48828125,0,0,0.48828125,0.5,0.5)"
     sodipodi:insensitive="true" />
  <path
     class="cls-2"
     d="M 185.83203,64.791992 A 84.179687,84.179687 0 0 0 125.82715,39.918945 c -46.713869,0 -84.775392,38.041992 -84.775392,84.809575 a 84.702148,84.702148 0 0 0 11.328125,42.39257 L 40.34375,211.06641 85.304687,199.26465 a 84.741211,84.741211 0 0 0 40.527343,10.33691 h 0.0342 c 46.74316,0 84.80957,-38.04199 84.80957,-84.80957 A 84.34082,84.34082 0 0 0 185.8174,64.806641 v 0 z M 125.85156,195.32422 a 70.395508,70.395508 0 0 1 -35.898435,-9.83399 l -2.583008,-1.53808 -26.679687,6.97754 7.124023,-26.01074 -1.669922,-2.6709 A 69.96582,69.96582 0 0 1 55.348633,124.74316 c 0,-38.886715 31.625976,-70.532222 70.541997,-70.532222 a 70.478516,70.478516 0 0 1 70.46874,70.546872 c -0.0342,38.90137 -31.65527,70.53711 -70.51269,70.53711 v 0 z m 38.64746,-52.83203 c -2.10937,-1.07422 -12.53906,-6.18653 -14.47754,-6.89453 -1.93847,-0.70801 -3.34472,-1.06934 -4.78515,1.07421 -1.44043,2.14356 -5.47852,6.88965 -6.71875,8.30079 -1.24024,1.41113 -2.47071,1.60644 -4.5752,0.53222 -2.10449,-1.07422 -8.95996,-3.30566 -17.05078,-10.52734 -6.28906,-5.61524 -10.55176,-12.56836 -11.79199,-14.64844 -1.24023,-2.08008 -0.1416,-3.27637 0.9375,-4.31152 0.97656,-0.94238 2.10937,-2.47071 3.17871,-3.71094 1.06934,-1.24023 1.40625,-2.10937 2.10938,-3.54492 0.70312,-1.43555 0.36132,-2.64649 -0.1709,-3.71094 -0.53223,-1.06445 -4.78516,-11.499022 -6.51368,-15.747069 -1.7041,-4.155274 -3.47656,-3.574219 -4.780268,-3.647461 -1.303711,-0.07324 -2.646485,-0.06348 -4.047852,-0.06348 a 7.8125,7.8125 0 0 0 -5.649414,2.641602 c -1.953125,2.109375 -7.421875,7.255859 -7.421875,17.685548 0,10.42969 7.587891,20.50781 8.652344,21.92871 1.064453,1.4209 14.946285,22.83203 36.201175,32.00196 5.04882,2.16796 8.99414,3.47168 12.07031,4.48242 a 29.296875,29.296875 0 0 0 13.33984,0.83496 c 4.07715,-0.60059 12.53907,-5.12207 14.31153,-10.06836 1.77246,-4.94629 1.77246,-9.19434 1.24511,-10.06836 -0.52734,-0.87402 -1.90918,-1.46484 -4.04785,-2.54883 v 0 z"
     id="path3"
     style="stroke-width:0.488281"
     sodipodi:insensitive="true" />
  <metadata
     id="metadata3">
    <rdf:RDF>
      <cc:Work
         rdf:about="">
        <dc:title>wa</dc:title>
      </cc:Work>
    </rdf:RDF>
  </metadata>
</svg>
